%TF.GenerationSoftware,KiCad,Pcbnew,9.0.5*%
%TF.CreationDate,2025-10-18T15:16:22+02:00*%
%TF.ProjectId,a8sram,61387372-616d-42e6-9b69-6361645f7063,rev?*%
%TF.SameCoordinates,Original*%
%TF.FileFunction,Copper,L2,Bot*%
%TF.FilePolarity,Positive*%
%FSLAX46Y46*%
G04 Gerber Fmt 4.6, Leading zero omitted, Abs format (unit mm)*
G04 Created by KiCad (PCBNEW 9.0.5) date 2025-10-18 15:16:22*
%MOMM*%
%LPD*%
G01*
G04 APERTURE LIST*
G04 Aperture macros list*
%AMRoundRect*
0 Rectangle with rounded corners*
0 $1 Rounding radius*
0 $2 $3 $4 $5 $6 $7 $8 $9 X,Y pos of 4 corners*
0 Add a 4 corners polygon primitive as box body*
4,1,4,$2,$3,$4,$5,$6,$7,$8,$9,$2,$3,0*
0 Add four circle primitives for the rounded corners*
1,1,$1+$1,$2,$3*
1,1,$1+$1,$4,$5*
1,1,$1+$1,$6,$7*
1,1,$1+$1,$8,$9*
0 Add four rect primitives between the rounded corners*
20,1,$1+$1,$2,$3,$4,$5,0*
20,1,$1+$1,$4,$5,$6,$7,0*
20,1,$1+$1,$6,$7,$8,$9,0*
20,1,$1+$1,$8,$9,$2,$3,0*%
G04 Aperture macros list end*
%TA.AperFunction,ComponentPad*%
%ADD10RoundRect,0.250000X0.550000X0.550000X-0.550000X0.550000X-0.550000X-0.550000X0.550000X-0.550000X0*%
%TD*%
%TA.AperFunction,ComponentPad*%
%ADD11C,1.600000*%
%TD*%
%TA.AperFunction,ComponentPad*%
%ADD12R,1.600000X1.600000*%
%TD*%
%TA.AperFunction,ComponentPad*%
%ADD13R,1.700000X1.700000*%
%TD*%
%TA.AperFunction,ComponentPad*%
%ADD14C,1.700000*%
%TD*%
%TA.AperFunction,ComponentPad*%
%ADD15RoundRect,0.250000X-0.550000X-0.550000X0.550000X-0.550000X0.550000X0.550000X-0.550000X0.550000X0*%
%TD*%
%TA.AperFunction,ViaPad*%
%ADD16C,1.200000*%
%TD*%
%TA.AperFunction,Conductor*%
%ADD17C,0.250000*%
%TD*%
%TA.AperFunction,Conductor*%
%ADD18C,0.200000*%
%TD*%
G04 APERTURE END LIST*
D10*
%TO.P,U6,1,A14*%
%TO.N,/A14*%
X139700000Y-91440000D03*
D11*
%TO.P,U6,2,A12*%
%TO.N,/A12*%
X139700000Y-88900000D03*
%TO.P,U6,3,A7*%
%TO.N,/A7*%
X139700000Y-86360000D03*
%TO.P,U6,4,A6*%
%TO.N,/A6*%
X139700000Y-83820000D03*
%TO.P,U6,5,A5*%
%TO.N,/A5*%
X139700000Y-81280000D03*
%TO.P,U6,6,A4*%
%TO.N,/A4*%
X139700000Y-78740000D03*
%TO.P,U6,7,A3*%
%TO.N,/A3*%
X139700000Y-76200000D03*
%TO.P,U6,8,A2*%
%TO.N,/A2*%
X139700000Y-73660000D03*
%TO.P,U6,9,A1*%
%TO.N,/A1*%
X139700000Y-71120000D03*
%TO.P,U6,10,A0*%
%TO.N,/A0*%
X139700000Y-68580000D03*
%TO.P,U6,11,Q0*%
%TO.N,/D0*%
X139700000Y-66040000D03*
%TO.P,U6,12,Q1*%
%TO.N,/D1*%
X139700000Y-63500000D03*
%TO.P,U6,13,Q2*%
%TO.N,/D2*%
X139700000Y-60960000D03*
%TO.P,U6,14,GND*%
%TO.N,GND*%
X139700000Y-58420000D03*
%TO.P,U6,15,Q3*%
%TO.N,/D3*%
X132080000Y-58420000D03*
%TO.P,U6,16,Q4*%
%TO.N,/D4*%
X132080000Y-60960000D03*
%TO.P,U6,17,Q5*%
%TO.N,/D5*%
X132080000Y-63500000D03*
%TO.P,U6,18,Q6*%
%TO.N,/D6*%
X132080000Y-66040000D03*
%TO.P,U6,19,Q7*%
%TO.N,/D7*%
X132080000Y-68580000D03*
%TO.P,U6,20,~{CS}*%
%TO.N,_CS2*%
X132080000Y-71120000D03*
%TO.P,U6,21,A10*%
%TO.N,/A10*%
X132080000Y-73660000D03*
%TO.P,U6,22,~{OE}*%
%TO.N,_OE*%
X132080000Y-76200000D03*
%TO.P,U6,23,A11*%
%TO.N,/A11*%
X132080000Y-78740000D03*
%TO.P,U6,24,A9*%
%TO.N,/A9*%
X132080000Y-81280000D03*
%TO.P,U6,25,A8*%
%TO.N,/A8*%
X132080000Y-83820000D03*
%TO.P,U6,26,A13*%
%TO.N,/A13*%
X132080000Y-86360000D03*
%TO.P,U6,27,~{WE}*%
%TO.N,RW*%
X132080000Y-88900000D03*
%TO.P,U6,28,VCC*%
%TO.N,+5V*%
X132080000Y-91440000D03*
%TD*%
D12*
%TO.P,RN1,1,common*%
%TO.N,Net-(JP1-C)*%
X114300000Y-53340000D03*
D11*
%TO.P,RN1,2,R1*%
%TO.N,CLK{slash}2*%
X114300000Y-55880000D03*
%TO.P,RN1,3,R2*%
%TO.N,OSC*%
X114300000Y-58420000D03*
%TO.P,RN1,4,R3*%
%TO.N,O3*%
X114300000Y-60960000D03*
%TO.P,RN1,5,R4*%
%TO.N,O4*%
X114300000Y-63500000D03*
%TO.P,RN1,6,R5*%
%TO.N,O5*%
X114300000Y-66040000D03*
%TO.P,RN1,7,R6*%
%TO.N,_CS2*%
X114300000Y-68580000D03*
%TO.P,RN1,8,R7*%
%TO.N,_CS1*%
X114300000Y-71120000D03*
%TO.P,RN1,9,R8*%
%TO.N,_OE*%
X114300000Y-73660000D03*
%TD*%
D13*
%TO.P,J1,1,Pin_1*%
%TO.N,/D0*%
X139700000Y-53340000D03*
D14*
%TO.P,J1,2,Pin_2*%
%TO.N,/D1*%
X137160000Y-53340000D03*
%TO.P,J1,3,Pin_3*%
%TO.N,/D2*%
X134620000Y-53340000D03*
%TO.P,J1,4,Pin_4*%
%TO.N,/D3*%
X132080000Y-53340000D03*
%TO.P,J1,5,Pin_5*%
%TO.N,/D4*%
X129540000Y-53340000D03*
%TO.P,J1,6,Pin_6*%
%TO.N,/D5*%
X127000000Y-53340000D03*
%TO.P,J1,7,Pin_7*%
%TO.N,/D6*%
X124460000Y-53340000D03*
%TO.P,J1,8,Pin_8*%
%TO.N,/D7*%
X121920000Y-53340000D03*
%TD*%
D15*
%TO.P,U4,1,CLK0*%
%TO.N,unconnected-(U4-CLK0-Pad1)*%
X101600000Y-50800000D03*
D11*
%TO.P,U4,2,CLK*%
%TO.N,CLK*%
X101600000Y-53340000D03*
%TO.P,U4,3,EXTSEL*%
%TO.N,_EXTSEL*%
X101600000Y-55880000D03*
%TO.P,U4,4,_CI*%
%TO.N,_CI*%
X101600000Y-58420000D03*
%TO.P,U4,5,O2*%
%TO.N,_O2*%
X101600000Y-60960000D03*
%TO.P,U4,6,NC*%
%TO.N,unconnected-(U4-NC-Pad6)*%
X101600000Y-63500000D03*
%TO.P,U4,7,NC*%
%TO.N,unconnected-(U4-NC-Pad7)*%
X101600000Y-66040000D03*
%TO.P,U4,8,A0*%
%TO.N,/A0*%
X101600000Y-68580000D03*
%TO.P,U4,9,A1*%
%TO.N,/A1*%
X101600000Y-71120000D03*
%TO.P,U4,10,A2*%
%TO.N,/A2*%
X101600000Y-73660000D03*
%TO.P,U4,11,A3*%
%TO.N,/A3*%
X101600000Y-76200000D03*
%TO.P,U4,12,A4*%
%TO.N,/A4*%
X101600000Y-78740000D03*
%TO.P,U4,13,A5*%
%TO.N,/A5*%
X101600000Y-81280000D03*
%TO.P,U4,14,A6*%
%TO.N,/A6*%
X101600000Y-83820000D03*
%TO.P,U4,15,A7*%
%TO.N,/A7*%
X101600000Y-86360000D03*
%TO.P,U4,16,A8*%
%TO.N,/A8*%
X101600000Y-88900000D03*
%TO.P,U4,17,A9*%
%TO.N,/A9*%
X101600000Y-91440000D03*
%TO.P,U4,18,A10*%
%TO.N,/A10*%
X101600000Y-93980000D03*
%TO.P,U4,19,A11*%
%TO.N,/A11*%
X101600000Y-96520000D03*
%TO.P,U4,20,Vss*%
%TO.N,GND*%
X101600000Y-99060000D03*
%TO.P,U4,21,A12*%
%TO.N,/A12*%
X116840000Y-99060000D03*
%TO.P,U4,22,A13*%
%TO.N,/A13*%
X116840000Y-96520000D03*
%TO.P,U4,23,FA14*%
%TO.N,/A14*%
X116840000Y-93980000D03*
%TO.P,U4,24,FA15*%
%TO.N,A15*%
X116840000Y-91440000D03*
%TO.P,U4,25,RA7*%
%TO.N,unconnected-(U4-RA7-Pad25)*%
X116840000Y-88900000D03*
%TO.P,U4,26,RA6*%
%TO.N,unconnected-(U4-RA6-Pad26)*%
X116840000Y-86360000D03*
%TO.P,U4,27,RA5*%
%TO.N,unconnected-(U4-RA5-Pad27)*%
X116840000Y-83820000D03*
%TO.P,U4,28,RA4*%
%TO.N,unconnected-(U4-RA4-Pad28)*%
X116840000Y-81280000D03*
%TO.P,U4,29,RA3*%
%TO.N,unconnected-(U4-RA3-Pad29)*%
X116840000Y-78740000D03*
%TO.P,U4,30,RA2*%
%TO.N,unconnected-(U4-RA2-Pad30)*%
X116840000Y-76200000D03*
%TO.P,U4,31,RA1*%
%TO.N,unconnected-(U4-RA1-Pad31)*%
X116840000Y-73660000D03*
%TO.P,U4,32,RA0*%
%TO.N,unconnected-(U4-RA0-Pad32)*%
X116840000Y-71120000D03*
%TO.P,U4,33,_RAS*%
%TO.N,unconnected-(U4-_RAS-Pad33)*%
X116840000Y-68580000D03*
%TO.P,U4,34,_WRT*%
%TO.N,unconnected-(U4-_WRT-Pad34)*%
X116840000Y-66040000D03*
%TO.P,U4,35,_CAS*%
%TO.N,unconnected-(U4-_CAS-Pad35)*%
X116840000Y-63500000D03*
%TO.P,U4,36,NC*%
%TO.N,unconnected-(U4-NC-Pad36)*%
X116840000Y-60960000D03*
%TO.P,U4,37,OSC*%
%TO.N,OSC*%
X116840000Y-58420000D03*
%TO.P,U4,38,R/_W*%
%TO.N,RW*%
X116840000Y-55880000D03*
%TO.P,U4,39,_RST*%
%TO.N,unconnected-(U4-_RST-Pad39)*%
X116840000Y-53340000D03*
%TO.P,U4,40,Vcc*%
%TO.N,+5V*%
X116840000Y-50800000D03*
%TD*%
D15*
%TO.P,U1,1,I1/CLK*%
%TO.N,CLK*%
X104140000Y-53340000D03*
D11*
%TO.P,U1,2,I2*%
%TO.N,_EXTSEL*%
X104140000Y-55880000D03*
%TO.P,U1,3,I3*%
%TO.N,_CI*%
X104140000Y-58420000D03*
%TO.P,U1,4,I4*%
%TO.N,_O2*%
X104140000Y-60960000D03*
%TO.P,U1,5,I5*%
%TO.N,RW*%
X104140000Y-63500000D03*
%TO.P,U1,6,I6*%
%TO.N,I6*%
X104140000Y-66040000D03*
%TO.P,U1,7,I7*%
%TO.N,I7*%
X104140000Y-68580000D03*
%TO.P,U1,8,I8*%
%TO.N,I8*%
X104140000Y-71120000D03*
%TO.P,U1,9,I9*%
%TO.N,A15*%
X104140000Y-73660000D03*
%TO.P,U1,10,GND*%
%TO.N,GND*%
X104140000Y-76200000D03*
%TO.P,U1,11,I10/~{OE}*%
X111760000Y-76200000D03*
%TO.P,U1,12,IO8*%
%TO.N,_OE*%
X111760000Y-73660000D03*
%TO.P,U1,13,IO7*%
%TO.N,_CS1*%
X111760000Y-71120000D03*
%TO.P,U1,14,IO6*%
%TO.N,_CS2*%
X111760000Y-68580000D03*
%TO.P,U1,15,IO5*%
%TO.N,O5*%
X111760000Y-66040000D03*
%TO.P,U1,16,IO4*%
%TO.N,O4*%
X111760000Y-63500000D03*
%TO.P,U1,17,I03*%
%TO.N,O3*%
X111760000Y-60960000D03*
%TO.P,U1,18,IO2*%
%TO.N,OSC*%
X111760000Y-58420000D03*
%TO.P,U1,19,IO1*%
%TO.N,CLK{slash}2*%
X111760000Y-55880000D03*
%TO.P,U1,20,VCC*%
%TO.N,+5V*%
X111760000Y-53340000D03*
%TD*%
D10*
%TO.P,U5,1,A14*%
%TO.N,/A14*%
X129540000Y-91440000D03*
D11*
%TO.P,U5,2,A12*%
%TO.N,/A12*%
X129540000Y-88900000D03*
%TO.P,U5,3,A7*%
%TO.N,/A7*%
X129540000Y-86360000D03*
%TO.P,U5,4,A6*%
%TO.N,/A6*%
X129540000Y-83820000D03*
%TO.P,U5,5,A5*%
%TO.N,/A5*%
X129540000Y-81280000D03*
%TO.P,U5,6,A4*%
%TO.N,/A4*%
X129540000Y-78740000D03*
%TO.P,U5,7,A3*%
%TO.N,/A3*%
X129540000Y-76200000D03*
%TO.P,U5,8,A2*%
%TO.N,/A2*%
X129540000Y-73660000D03*
%TO.P,U5,9,A1*%
%TO.N,/A1*%
X129540000Y-71120000D03*
%TO.P,U5,10,A0*%
%TO.N,/A0*%
X129540000Y-68580000D03*
%TO.P,U5,11,Q0*%
%TO.N,/D0*%
X129540000Y-66040000D03*
%TO.P,U5,12,Q1*%
%TO.N,/D1*%
X129540000Y-63500000D03*
%TO.P,U5,13,Q2*%
%TO.N,/D2*%
X129540000Y-60960000D03*
%TO.P,U5,14,GND*%
%TO.N,GND*%
X129540000Y-58420000D03*
%TO.P,U5,15,Q3*%
%TO.N,/D3*%
X121920000Y-58420000D03*
%TO.P,U5,16,Q4*%
%TO.N,/D4*%
X121920000Y-60960000D03*
%TO.P,U5,17,Q5*%
%TO.N,/D5*%
X121920000Y-63500000D03*
%TO.P,U5,18,Q6*%
%TO.N,/D6*%
X121920000Y-66040000D03*
%TO.P,U5,19,Q7*%
%TO.N,/D7*%
X121920000Y-68580000D03*
%TO.P,U5,20,~{CS}*%
%TO.N,_CS1*%
X121920000Y-71120000D03*
%TO.P,U5,21,A10*%
%TO.N,/A10*%
X121920000Y-73660000D03*
%TO.P,U5,22,~{OE}*%
%TO.N,_OE*%
X121920000Y-76200000D03*
%TO.P,U5,23,A11*%
%TO.N,/A11*%
X121920000Y-78740000D03*
%TO.P,U5,24,A9*%
%TO.N,/A9*%
X121920000Y-81280000D03*
%TO.P,U5,25,A8*%
%TO.N,/A8*%
X121920000Y-83820000D03*
%TO.P,U5,26,A13*%
%TO.N,/A13*%
X121920000Y-86360000D03*
%TO.P,U5,27,~{WE}*%
%TO.N,RW*%
X121920000Y-88900000D03*
%TO.P,U5,28,VCC*%
%TO.N,+5V*%
X121920000Y-91440000D03*
%TD*%
D16*
%TO.N,*%
X142790000Y-47870000D03*
X97790000Y-47870000D03*
X97790000Y-102870000D03*
X142790000Y-102870000D03*
%TO.N,/A8*%
X113030000Y-88900000D03*
%TO.N,/A1*%
X119380000Y-73660000D03*
%TO.N,_CS1*%
X119380000Y-71120000D03*
%TD*%
D17*
%TO.N,GND*%
X104140000Y-76200000D02*
X111760000Y-76200000D01*
%TO.N,+5V*%
X130429000Y-90170000D02*
X123190000Y-90170000D01*
X123190000Y-90170000D02*
X121920000Y-91440000D01*
X131699000Y-91440000D02*
X130429000Y-90170000D01*
X132080000Y-91440000D02*
X131699000Y-91440000D01*
%TO.N,/D0*%
X141625000Y-56515000D02*
X141605000Y-56515000D01*
X131699000Y-67310000D02*
X130429000Y-66040000D01*
X141625000Y-64115000D02*
X141625000Y-56515000D01*
X139700000Y-66040000D02*
X138430000Y-67310000D01*
X139700000Y-66040000D02*
X141625000Y-64115000D01*
X139700000Y-54610000D02*
X139700000Y-53340000D01*
X130429000Y-66040000D02*
X129540000Y-66040000D01*
X141605000Y-56515000D02*
X139700000Y-54610000D01*
X138430000Y-67310000D02*
X131699000Y-67310000D01*
%TO.N,/D4*%
X120777000Y-57519388D02*
X120777000Y-57531000D01*
X120777000Y-57531000D02*
X121666000Y-56642000D01*
X121666000Y-56642000D02*
X127508000Y-56642000D01*
X131572000Y-60960000D02*
X130302000Y-59690000D01*
X130302000Y-59690000D02*
X123190000Y-59690000D01*
X129540000Y-54610000D02*
X129540000Y-53340000D01*
X120777000Y-57531000D02*
X120777000Y-59817000D01*
X132080000Y-60960000D02*
X131572000Y-60960000D01*
X127508000Y-56642000D02*
X129540000Y-54610000D01*
X120777000Y-59817000D02*
X121920000Y-60960000D01*
X123190000Y-59690000D02*
X121920000Y-60960000D01*
%TO.N,/D2*%
X130429000Y-60960000D02*
X129540000Y-60960000D01*
X140801000Y-57531000D02*
X140420000Y-57150000D01*
X139700000Y-60960000D02*
X138430000Y-62230000D01*
X134620000Y-54737000D02*
X134620000Y-53340000D01*
X140801000Y-59859000D02*
X140801000Y-57531000D01*
X139700000Y-60960000D02*
X140801000Y-59859000D01*
X140420000Y-57150000D02*
X137033000Y-57150000D01*
X137033000Y-57150000D02*
X134620000Y-54737000D01*
X131699000Y-62230000D02*
X130429000Y-60960000D01*
X138430000Y-62230000D02*
X131699000Y-62230000D01*
%TO.N,/D7*%
X119253000Y-56007000D02*
X121920000Y-53340000D01*
X132080000Y-68580000D02*
X131572000Y-68580000D01*
X130302000Y-67310000D02*
X123190000Y-67310000D01*
X131572000Y-68580000D02*
X130302000Y-67310000D01*
X121920000Y-68580000D02*
X119253000Y-65913000D01*
X123190000Y-67310000D02*
X121920000Y-68580000D01*
X119253000Y-65913000D02*
X119253000Y-56007000D01*
%TO.N,/D1*%
X139700000Y-63500000D02*
X141224000Y-61976000D01*
X137160000Y-54483000D02*
X137160000Y-53340000D01*
X139700000Y-63500000D02*
X138430000Y-64770000D01*
X138430000Y-64770000D02*
X131699000Y-64770000D01*
X131699000Y-64770000D02*
X130429000Y-63500000D01*
X130429000Y-63500000D02*
X129540000Y-63500000D01*
X141224000Y-56907611D02*
X140196389Y-55880000D01*
X141224000Y-61976000D02*
X141224000Y-56907611D01*
X138557000Y-55880000D02*
X137160000Y-54483000D01*
X140196389Y-55880000D02*
X138557000Y-55880000D01*
%TO.N,/D6*%
X123444000Y-55245000D02*
X124460000Y-54229000D01*
X119761000Y-56642000D02*
X121158000Y-55245000D01*
X119761000Y-63881000D02*
X119761000Y-56642000D01*
X131572000Y-66040000D02*
X130302000Y-64770000D01*
X124460000Y-54229000D02*
X124460000Y-53340000D01*
X121158000Y-55245000D02*
X123444000Y-55245000D01*
X123190000Y-64770000D02*
X121920000Y-66040000D01*
X130302000Y-64770000D02*
X123190000Y-64770000D01*
X132080000Y-66040000D02*
X131572000Y-66040000D01*
X121920000Y-66040000D02*
X119761000Y-63881000D01*
%TO.N,/D3*%
X130979000Y-57319000D02*
X130810000Y-57319000D01*
X132080000Y-58420000D02*
X130979000Y-57319000D01*
X130810000Y-57319000D02*
X123021000Y-57319000D01*
X123021000Y-57319000D02*
X121920000Y-58420000D01*
X132080000Y-53340000D02*
X132080000Y-58420000D01*
%TO.N,RW*%
X100330000Y-65328800D02*
X100888800Y-64770000D01*
X117729000Y-90170000D02*
X116205000Y-90170000D01*
X101092000Y-87630000D02*
X100330000Y-86868000D01*
X113665000Y-87630000D02*
X101092000Y-87630000D01*
X100330000Y-86868000D02*
X100330000Y-65328800D01*
X123190000Y-87630000D02*
X121920000Y-88900000D01*
X130302000Y-87630000D02*
X123190000Y-87630000D01*
X116205000Y-90170000D02*
X113665000Y-87630000D01*
X121920000Y-88900000D02*
X118999000Y-88900000D01*
X116840000Y-55880000D02*
X115570000Y-57150000D01*
X110490000Y-57150000D02*
X104140000Y-63500000D01*
X115570000Y-57150000D02*
X110490000Y-57150000D01*
X100888800Y-64770000D02*
X102870000Y-64770000D01*
X131572000Y-88900000D02*
X130302000Y-87630000D01*
X132080000Y-88900000D02*
X131572000Y-88900000D01*
X102870000Y-64770000D02*
X104140000Y-63500000D01*
X118999000Y-88900000D02*
X117729000Y-90170000D01*
%TO.N,CLK*%
X104140000Y-53340000D02*
X101600000Y-53340000D01*
%TO.N,OSC*%
X116840000Y-58420000D02*
X111760000Y-58420000D01*
%TO.N,/A10*%
X130302000Y-72390000D02*
X124333000Y-72390000D01*
X131572000Y-73660000D02*
X130302000Y-72390000D01*
X124333000Y-72390000D02*
X123063000Y-73660000D01*
X123063000Y-73660000D02*
X121920000Y-73660000D01*
%TO.N,/A3*%
X122555000Y-77470000D02*
X102870000Y-77470000D01*
X131699000Y-77470000D02*
X130429000Y-76200000D01*
X123825000Y-76200000D02*
X122555000Y-77470000D01*
X102870000Y-77470000D02*
X101600000Y-76200000D01*
X129540000Y-76200000D02*
X123825000Y-76200000D01*
X130429000Y-76200000D02*
X129540000Y-76200000D01*
X138430000Y-77470000D02*
X131699000Y-77470000D01*
X139700000Y-76200000D02*
X138430000Y-77470000D01*
%TO.N,/A9*%
X130302000Y-80010000D02*
X123698000Y-80010000D01*
X122428000Y-81280000D02*
X121920000Y-81280000D01*
X131572000Y-81280000D02*
X130302000Y-80010000D01*
X132080000Y-81280000D02*
X131572000Y-81280000D01*
X123698000Y-80010000D02*
X122428000Y-81280000D01*
%TO.N,/A13*%
X131445000Y-86360000D02*
X130175000Y-85090000D01*
X122555000Y-86360000D02*
X121920000Y-86360000D01*
X123825000Y-85090000D02*
X122555000Y-86360000D01*
X132080000Y-86360000D02*
X131445000Y-86360000D01*
X130175000Y-85090000D02*
X123825000Y-85090000D01*
%TO.N,/A8*%
X122301000Y-83820000D02*
X121920000Y-83820000D01*
X132080000Y-83820000D02*
X131572000Y-83820000D01*
X131572000Y-83820000D02*
X130302000Y-82550000D01*
X130302000Y-82550000D02*
X123571000Y-82550000D01*
X113030000Y-88900000D02*
X101600000Y-88900000D01*
X123571000Y-82550000D02*
X122301000Y-83820000D01*
%TO.N,/A2*%
X138430000Y-74930000D02*
X131572000Y-74930000D01*
X139700000Y-73660000D02*
X138430000Y-74930000D01*
X102870000Y-74930000D02*
X101600000Y-73660000D01*
X123063000Y-74295000D02*
X122428000Y-74930000D01*
X131572000Y-74930000D02*
X130302000Y-73660000D01*
X122428000Y-74930000D02*
X102870000Y-74930000D01*
X129540000Y-73660000D02*
X129482193Y-73660000D01*
X128847193Y-74295000D02*
X123063000Y-74295000D01*
X129482193Y-73660000D02*
X128847193Y-74295000D01*
X130302000Y-73660000D02*
X129540000Y-73660000D01*
%TO.N,/A6*%
X102870000Y-85090000D02*
X101600000Y-83820000D01*
X129540000Y-83820000D02*
X123698000Y-83820000D01*
X139700000Y-83820000D02*
X138430000Y-85090000D01*
X130175000Y-83820000D02*
X129540000Y-83820000D01*
X138430000Y-85090000D02*
X131445000Y-85090000D01*
X122428000Y-85090000D02*
X102870000Y-85090000D01*
X131445000Y-85090000D02*
X130175000Y-83820000D01*
X123698000Y-83820000D02*
X122428000Y-85090000D01*
%TO.N,/A4*%
X102870000Y-80010000D02*
X101600000Y-78740000D01*
X138430000Y-80010000D02*
X131445000Y-80010000D01*
X129540000Y-78740000D02*
X123825000Y-78740000D01*
X130175000Y-78740000D02*
X129540000Y-78740000D01*
X123825000Y-78740000D02*
X122555000Y-80010000D01*
X131445000Y-80010000D02*
X130175000Y-78740000D01*
X139700000Y-78740000D02*
X138430000Y-80010000D01*
X122555000Y-80010000D02*
X102870000Y-80010000D01*
%TO.N,/A7*%
X138430000Y-87630000D02*
X131508500Y-87630000D01*
X114554000Y-86360000D02*
X101600000Y-86360000D01*
X129540000Y-86360000D02*
X123698000Y-86360000D01*
X122428000Y-87630000D02*
X115824000Y-87630000D01*
X123698000Y-86360000D02*
X122428000Y-87630000D01*
X139700000Y-86360000D02*
X138430000Y-87630000D01*
X115824000Y-87630000D02*
X114554000Y-86360000D01*
X130238500Y-86360000D02*
X129540000Y-86360000D01*
X131508500Y-87630000D02*
X130238500Y-86360000D01*
%TO.N,/A14*%
X129540000Y-91440000D02*
X128270000Y-92710000D01*
X128270000Y-92710000D02*
X118110000Y-92710000D01*
X139700000Y-91440000D02*
X138430000Y-92710000D01*
X130810000Y-92710000D02*
X129540000Y-91440000D01*
X118110000Y-92710000D02*
X116840000Y-93980000D01*
X138430000Y-92710000D02*
X130810000Y-92710000D01*
%TO.N,/A5*%
X122428000Y-82550000D02*
X102870000Y-82550000D01*
X130175000Y-81280000D02*
X129540000Y-81280000D01*
X138430000Y-82550000D02*
X131445000Y-82550000D01*
X131445000Y-82550000D02*
X130175000Y-81280000D01*
X123698000Y-81280000D02*
X122428000Y-82550000D01*
X102870000Y-82550000D02*
X101600000Y-81280000D01*
X129540000Y-81280000D02*
X123698000Y-81280000D01*
X139700000Y-81280000D02*
X138430000Y-82550000D01*
%TO.N,/A12*%
X116840000Y-99060000D02*
X122809000Y-93091000D01*
X138430000Y-90170000D02*
X131699000Y-90170000D01*
X139935160Y-93091000D02*
X140801000Y-92225160D01*
X130429000Y-88900000D02*
X129540000Y-88900000D01*
X140801000Y-90001000D02*
X139700000Y-88900000D01*
X140801000Y-92225160D02*
X140801000Y-90001000D01*
X139700000Y-88900000D02*
X138430000Y-90170000D01*
X122809000Y-93091000D02*
X139935160Y-93091000D01*
X131699000Y-90170000D02*
X130429000Y-88900000D01*
%TO.N,/A1*%
X119380000Y-73660000D02*
X120269000Y-72771000D01*
X131699000Y-72390000D02*
X130429000Y-71120000D01*
X118491000Y-72771000D02*
X119380000Y-73660000D01*
X130429000Y-71120000D02*
X129540000Y-71120000D01*
X120269000Y-72771000D02*
X121031000Y-72771000D01*
D18*
X117510000Y-72771000D02*
X117729000Y-72771000D01*
D17*
X139700000Y-71120000D02*
X138430000Y-72390000D01*
D18*
X116210595Y-72697000D02*
X116298595Y-72609000D01*
D17*
X101600000Y-71212725D02*
X101600000Y-71120000D01*
X114655600Y-72390000D02*
X102777275Y-72390000D01*
X121031000Y-72771000D02*
X121412000Y-72390000D01*
D18*
X117348000Y-72609000D02*
X117510000Y-72771000D01*
X116298595Y-72609000D02*
X117348000Y-72609000D01*
D17*
X121412000Y-72390000D02*
X122571525Y-72390000D01*
D18*
X115951000Y-72697000D02*
X116210595Y-72697000D01*
D17*
X138430000Y-72390000D02*
X131699000Y-72390000D01*
X114962600Y-72697000D02*
X114655600Y-72390000D01*
X102777275Y-72390000D02*
X101600000Y-71212725D01*
X122571525Y-72390000D02*
X123841525Y-71120000D01*
X115951000Y-72697000D02*
X114962600Y-72697000D01*
X117729000Y-72771000D02*
X118491000Y-72771000D01*
X123841525Y-71120000D02*
X129540000Y-71120000D01*
%TO.N,/A0*%
X137922000Y-69850000D02*
X131699000Y-69850000D01*
X124587000Y-68580000D02*
X123317000Y-69850000D01*
X102870000Y-69850000D02*
X101600000Y-68580000D01*
X139192000Y-68580000D02*
X137922000Y-69850000D01*
X129540000Y-68580000D02*
X124587000Y-68580000D01*
X123317000Y-69850000D02*
X102870000Y-69850000D01*
X130429000Y-68580000D02*
X129540000Y-68580000D01*
X131699000Y-69850000D02*
X130429000Y-68580000D01*
X139700000Y-68580000D02*
X139192000Y-68580000D01*
%TO.N,/A11*%
X131572000Y-78740000D02*
X130302000Y-77470000D01*
X132080000Y-78740000D02*
X131572000Y-78740000D01*
X130302000Y-77470000D02*
X123698000Y-77470000D01*
X122428000Y-78740000D02*
X121920000Y-78740000D01*
X123698000Y-77470000D02*
X122428000Y-78740000D01*
%TO.N,/D5*%
X121412000Y-56007000D02*
X125476000Y-56007000D01*
X125476000Y-56007000D02*
X127000000Y-54483000D01*
X120269000Y-57150000D02*
X121412000Y-56007000D01*
X120269000Y-61849000D02*
X120269000Y-57150000D01*
X130326083Y-62230000D02*
X123190000Y-62230000D01*
X127000000Y-54483000D02*
X127000000Y-53340000D01*
X131596083Y-63500000D02*
X130326083Y-62230000D01*
X132080000Y-63500000D02*
X131596083Y-63500000D01*
X121920000Y-63500000D02*
X120269000Y-61849000D01*
X123190000Y-62230000D02*
X121920000Y-63500000D01*
%TO.N,CLK{slash}2*%
X111760000Y-55880000D02*
X114300000Y-55880000D01*
%TO.N,O5*%
X111760000Y-66040000D02*
X114300000Y-66040000D01*
%TO.N,O4*%
X111760000Y-63500000D02*
X114300000Y-63500000D01*
%TO.N,O3*%
X111760000Y-60960000D02*
X114300000Y-60960000D01*
%TO.N,_CS2*%
X137795000Y-71120000D02*
X132080000Y-71120000D01*
X118745000Y-65913000D02*
X118745000Y-52197000D01*
X114300000Y-68580000D02*
X115570000Y-67310000D01*
X118745000Y-52197000D02*
X120015000Y-50927000D01*
X111760000Y-68580000D02*
X114300000Y-68580000D01*
X120015000Y-50927000D02*
X140462000Y-50927000D01*
X142113000Y-68199000D02*
X140462000Y-69850000D01*
X117348000Y-67310000D02*
X118745000Y-65913000D01*
X139065000Y-69850000D02*
X137795000Y-71120000D01*
X142113000Y-52578000D02*
X142113000Y-68199000D01*
X140462000Y-50927000D02*
X142113000Y-52578000D01*
X140462000Y-69850000D02*
X139065000Y-69850000D01*
X115570000Y-67310000D02*
X117348000Y-67310000D01*
%TO.N,_CS1*%
X116078000Y-72171000D02*
X115211300Y-72171000D01*
X117602000Y-72171000D02*
X120869000Y-72171000D01*
X120869000Y-72171000D02*
X121920000Y-71120000D01*
X121920000Y-71120000D02*
X119380000Y-71120000D01*
X114160300Y-71120000D02*
X111760000Y-71120000D01*
D18*
X117602000Y-72171000D02*
X116078000Y-72171000D01*
D17*
X115211300Y-72171000D02*
X114160300Y-71120000D01*
%TO.N,_OE*%
X132008800Y-76200000D02*
X130738800Y-74930000D01*
X122555000Y-76200000D02*
X121920000Y-76200000D01*
X132080000Y-76200000D02*
X132008800Y-76200000D01*
X111760000Y-73660000D02*
X114300000Y-73660000D01*
X123825000Y-74930000D02*
X122555000Y-76200000D01*
X130738800Y-74930000D02*
X123825000Y-74930000D01*
%TO.N,_EXTSEL*%
X104140000Y-55880000D02*
X101600000Y-55880000D01*
%TO.N,_O2*%
X104140000Y-60960000D02*
X101600000Y-60960000D01*
%TO.N,_CI*%
X104140000Y-58420000D02*
X101600000Y-58420000D01*
%TD*%
M02*
