<?xml version="1.0" standalone="no"?>
 <!DOCTYPE svg PUBLIC "-//W3C//DTD SVG 1.1//EN" 
 "http://www.w3.org/Graphics/SVG/1.1/DTD/svg11.dtd"> 
<svg
  xmlns:svg="http://www.w3.org/2000/svg"
  xmlns="http://www.w3.org/2000/svg"
  xmlns:xlink="http://www.w3.org/1999/xlink"
  version="1.1"
  width="297.0022mm" height="210.0072mm" viewBox="0.0000 0.0000 297.0022 210.0072">
<title>SVG Image created as a8sram-B_Cu.svg date 2025/10/18 19:59:29 </title>
  <desc>Image generated by PCBNEW </desc>
<g style="fill:#000000; fill-opacity:1.0000;stroke:#000000; stroke-opacity:1.0000;
stroke-linecap:round; stroke-linejoin:round;"
 transform="translate(0 0) scale(1 1)">
<path style="fill:#000000; fill-opacity:1.0000; stroke:none;fill-rule:evenodd;"
d="M 140.5000,91.9900
140.4810,92.0857
140.4268,92.1668
140.3457,92.2210
140.2500,92.2400
139.1500,92.2400
139.0543,92.2210
138.9732,92.1668
138.9190,92.0857
138.9000,91.9900
138.9000,90.8900
138.9190,90.7943
138.9732,90.7132
139.0543,90.6590
139.1500,90.6400
140.2500,90.6400
140.3457,90.6590
140.4268,90.7132
140.4810,90.7943
140.5000,90.8900
Z" /> 
</g>
<g style="fill:#000000; fill-opacity:1.0000; stroke:none;">
<circle cx="139.7000" cy="88.9000" r="0.8000" /> 
</g>
<g style="fill:#000000; fill-opacity:1.0000; stroke:none;">
<circle cx="139.7000" cy="86.3600" r="0.8000" /> 
</g>
<g style="fill:#000000; fill-opacity:1.0000; stroke:none;">
<circle cx="139.7000" cy="83.8200" r="0.8000" /> 
</g>
<g style="fill:#000000; fill-opacity:1.0000; stroke:none;">
<circle cx="139.7000" cy="81.2800" r="0.8000" /> 
</g>
<g style="fill:#000000; fill-opacity:1.0000; stroke:none;">
<circle cx="139.7000" cy="78.7400" r="0.8000" /> 
</g>
<g style="fill:#000000; fill-opacity:1.0000; stroke:none;">
<circle cx="139.7000" cy="76.2000" r="0.8000" /> 
</g>
<g style="fill:#000000; fill-opacity:1.0000; stroke:none;">
<circle cx="139.7000" cy="73.6600" r="0.8000" /> 
</g>
<g style="fill:#000000; fill-opacity:1.0000; stroke:none;">
<circle cx="139.7000" cy="71.1200" r="0.8000" /> 
</g>
<g style="fill:#000000; fill-opacity:1.0000; stroke:none;">
<circle cx="139.7000" cy="68.5800" r="0.8000" /> 
</g>
<g style="fill:#000000; fill-opacity:1.0000; stroke:none;">
<circle cx="139.7000" cy="66.0400" r="0.8000" /> 
</g>
<g style="fill:#000000; fill-opacity:1.0000; stroke:none;">
<circle cx="139.7000" cy="63.5000" r="0.8000" /> 
</g>
<g style="fill:#000000; fill-opacity:1.0000; stroke:none;">
<circle cx="139.7000" cy="60.9600" r="0.8000" /> 
</g>
<g style="fill:#000000; fill-opacity:1.0000; stroke:none;">
<circle cx="139.7000" cy="58.4200" r="0.8000" /> 
</g>
<g style="fill:#000000; fill-opacity:1.0000; stroke:none;">
<circle cx="132.0800" cy="58.4200" r="0.8000" /> 
</g>
<g style="fill:#000000; fill-opacity:1.0000; stroke:none;">
<circle cx="132.0800" cy="60.9600" r="0.8000" /> 
</g>
<g style="fill:#000000; fill-opacity:1.0000; stroke:none;">
<circle cx="132.0800" cy="63.5000" r="0.8000" /> 
</g>
<g style="fill:#000000; fill-opacity:1.0000; stroke:none;">
<circle cx="132.0800" cy="66.0400" r="0.8000" /> 
</g>
<g style="fill:#000000; fill-opacity:1.0000; stroke:none;">
<circle cx="132.0800" cy="68.5800" r="0.8000" /> 
</g>
<g style="fill:#000000; fill-opacity:1.0000; stroke:none;">
<circle cx="132.0800" cy="71.1200" r="0.8000" /> 
</g>
<g style="fill:#000000; fill-opacity:1.0000; stroke:none;">
<circle cx="132.0800" cy="73.6600" r="0.8000" /> 
</g>
<g style="fill:#000000; fill-opacity:1.0000; stroke:none;">
<circle cx="132.0800" cy="76.2000" r="0.8000" /> 
</g>
<g style="fill:#000000; fill-opacity:1.0000; stroke:none;">
<circle cx="132.0800" cy="78.7400" r="0.8000" /> 
</g>
<g style="fill:#000000; fill-opacity:1.0000; stroke:none;">
<circle cx="132.0800" cy="81.2800" r="0.8000" /> 
</g>
<g style="fill:#000000; fill-opacity:1.0000; stroke:none;">
<circle cx="132.0800" cy="83.8200" r="0.8000" /> 
</g>
<g style="fill:#000000; fill-opacity:1.0000; stroke:none;">
<circle cx="132.0800" cy="86.3600" r="0.8000" /> 
</g>
<g style="fill:#000000; fill-opacity:1.0000; stroke:none;">
<circle cx="132.0800" cy="88.9000" r="0.8000" /> 
</g>
<g style="fill:#000000; fill-opacity:1.0000; stroke:none;">
<circle cx="132.0800" cy="91.4400" r="0.8000" /> 
<path style="fill:#000000; fill-opacity:1.0000; stroke:none;fill-rule:evenodd;"
d="M 113.5000,52.5400
115.1000,52.5400
115.1000,54.1400
113.5000,54.1400
Z" /> 
</g>
<g style="fill:#000000; fill-opacity:1.0000; stroke:none;">
<circle cx="114.3000" cy="55.8800" r="0.8000" /> 
</g>
<g style="fill:#000000; fill-opacity:1.0000; stroke:none;">
<circle cx="114.3000" cy="58.4200" r="0.8000" /> 
</g>
<g style="fill:#000000; fill-opacity:1.0000; stroke:none;">
<circle cx="114.3000" cy="60.9600" r="0.8000" /> 
</g>
<g style="fill:#000000; fill-opacity:1.0000; stroke:none;">
<circle cx="114.3000" cy="63.5000" r="0.8000" /> 
</g>
<g style="fill:#000000; fill-opacity:1.0000; stroke:none;">
<circle cx="114.3000" cy="66.0400" r="0.8000" /> 
</g>
<g style="fill:#000000; fill-opacity:1.0000; stroke:none;">
<circle cx="114.3000" cy="68.5800" r="0.8000" /> 
</g>
<g style="fill:#000000; fill-opacity:1.0000; stroke:none;">
<circle cx="114.3000" cy="71.1200" r="0.8000" /> 
</g>
<g style="fill:#000000; fill-opacity:1.0000; stroke:none;">
<circle cx="114.3000" cy="73.6600" r="0.8000" /> 
<path style="fill:#000000; fill-opacity:1.0000; stroke:none;fill-rule:evenodd;"
d="M 138.8500,52.4900
140.5500,52.4900
140.5500,54.1900
138.8500,54.1900
Z" /> 
</g>
<g style="fill:#000000; fill-opacity:1.0000; stroke:none;">
<circle cx="137.1600" cy="53.3400" r="0.8500" /> 
</g>
<g style="fill:#000000; fill-opacity:1.0000; stroke:none;">
<circle cx="134.6200" cy="53.3400" r="0.8500" /> 
</g>
<g style="fill:#000000; fill-opacity:1.0000; stroke:none;">
<circle cx="132.0800" cy="53.3400" r="0.8500" /> 
</g>
<g style="fill:#000000; fill-opacity:1.0000; stroke:none;">
<circle cx="129.5400" cy="53.3400" r="0.8500" /> 
</g>
<g style="fill:#000000; fill-opacity:1.0000; stroke:none;">
<circle cx="127.0000" cy="53.3400" r="0.8500" /> 
</g>
<g style="fill:#000000; fill-opacity:1.0000; stroke:none;">
<circle cx="124.4600" cy="53.3400" r="0.8500" /> 
</g>
<g style="fill:#000000; fill-opacity:1.0000; stroke:none;">
<circle cx="121.9200" cy="53.3400" r="0.8500" /> 
<path style="fill:#000000; fill-opacity:1.0000; stroke:none;fill-rule:evenodd;"
d="M 100.8000,50.2500
100.8190,50.1543
100.8732,50.0732
100.9543,50.0190
101.0500,50.0000
102.1500,50.0000
102.2457,50.0190
102.3268,50.0732
102.3810,50.1543
102.4000,50.2500
102.4000,51.3500
102.3810,51.4457
102.3268,51.5268
102.2457,51.5810
102.1500,51.6000
101.0500,51.6000
100.9543,51.5810
100.8732,51.5268
100.8190,51.4457
100.8000,51.3500
Z" /> 
</g>
<g style="fill:#000000; fill-opacity:1.0000; stroke:none;">
<circle cx="101.6000" cy="53.3400" r="0.8000" /> 
</g>
<g style="fill:#000000; fill-opacity:1.0000; stroke:none;">
<circle cx="101.6000" cy="55.8800" r="0.8000" /> 
</g>
<g style="fill:#000000; fill-opacity:1.0000; stroke:none;">
<circle cx="101.6000" cy="58.4200" r="0.8000" /> 
</g>
<g style="fill:#000000; fill-opacity:1.0000; stroke:none;">
<circle cx="101.6000" cy="60.9600" r="0.8000" /> 
</g>
<g style="fill:#000000; fill-opacity:1.0000; stroke:none;">
<circle cx="101.6000" cy="63.5000" r="0.8000" /> 
</g>
<g style="fill:#000000; fill-opacity:1.0000; stroke:none;">
<circle cx="101.6000" cy="66.0400" r="0.8000" /> 
</g>
<g style="fill:#000000; fill-opacity:1.0000; stroke:none;">
<circle cx="101.6000" cy="68.5800" r="0.8000" /> 
</g>
<g style="fill:#000000; fill-opacity:1.0000; stroke:none;">
<circle cx="101.6000" cy="71.1200" r="0.8000" /> 
</g>
<g style="fill:#000000; fill-opacity:1.0000; stroke:none;">
<circle cx="101.6000" cy="73.6600" r="0.8000" /> 
</g>
<g style="fill:#000000; fill-opacity:1.0000; stroke:none;">
<circle cx="101.6000" cy="76.2000" r="0.8000" /> 
</g>
<g style="fill:#000000; fill-opacity:1.0000; stroke:none;">
<circle cx="101.6000" cy="78.7400" r="0.8000" /> 
</g>
<g style="fill:#000000; fill-opacity:1.0000; stroke:none;">
<circle cx="101.6000" cy="81.2800" r="0.8000" /> 
</g>
<g style="fill:#000000; fill-opacity:1.0000; stroke:none;">
<circle cx="101.6000" cy="83.8200" r="0.8000" /> 
</g>
<g style="fill:#000000; fill-opacity:1.0000; stroke:none;">
<circle cx="101.6000" cy="86.3600" r="0.8000" /> 
</g>
<g style="fill:#000000; fill-opacity:1.0000; stroke:none;">
<circle cx="101.6000" cy="88.9000" r="0.8000" /> 
</g>
<g style="fill:#000000; fill-opacity:1.0000; stroke:none;">
<circle cx="101.6000" cy="91.4400" r="0.8000" /> 
</g>
<g style="fill:#000000; fill-opacity:1.0000; stroke:none;">
<circle cx="101.6000" cy="93.9800" r="0.8000" /> 
</g>
<g style="fill:#000000; fill-opacity:1.0000; stroke:none;">
<circle cx="101.6000" cy="96.5200" r="0.8000" /> 
</g>
<g style="fill:#000000; fill-opacity:1.0000; stroke:none;">
<circle cx="101.6000" cy="99.0600" r="0.8000" /> 
</g>
<g style="fill:#000000; fill-opacity:1.0000; stroke:none;">
<circle cx="116.8400" cy="99.0600" r="0.8000" /> 
</g>
<g style="fill:#000000; fill-opacity:1.0000; stroke:none;">
<circle cx="116.8400" cy="96.5200" r="0.8000" /> 
</g>
<g style="fill:#000000; fill-opacity:1.0000; stroke:none;">
<circle cx="116.8400" cy="93.9800" r="0.8000" /> 
</g>
<g style="fill:#000000; fill-opacity:1.0000; stroke:none;">
<circle cx="116.8400" cy="91.4400" r="0.8000" /> 
</g>
<g style="fill:#000000; fill-opacity:1.0000; stroke:none;">
<circle cx="116.8400" cy="88.9000" r="0.8000" /> 
</g>
<g style="fill:#000000; fill-opacity:1.0000; stroke:none;">
<circle cx="116.8400" cy="86.3600" r="0.8000" /> 
</g>
<g style="fill:#000000; fill-opacity:1.0000; stroke:none;">
<circle cx="116.8400" cy="83.8200" r="0.8000" /> 
</g>
<g style="fill:#000000; fill-opacity:1.0000; stroke:none;">
<circle cx="116.8400" cy="81.2800" r="0.8000" /> 
</g>
<g style="fill:#000000; fill-opacity:1.0000; stroke:none;">
<circle cx="116.8400" cy="78.7400" r="0.8000" /> 
</g>
<g style="fill:#000000; fill-opacity:1.0000; stroke:none;">
<circle cx="116.8400" cy="76.2000" r="0.8000" /> 
</g>
<g style="fill:#000000; fill-opacity:1.0000; stroke:none;">
<circle cx="116.8400" cy="73.6600" r="0.8000" /> 
</g>
<g style="fill:#000000; fill-opacity:1.0000; stroke:none;">
<circle cx="116.8400" cy="71.1200" r="0.8000" /> 
</g>
<g style="fill:#000000; fill-opacity:1.0000; stroke:none;">
<circle cx="116.8400" cy="68.5800" r="0.8000" /> 
</g>
<g style="fill:#000000; fill-opacity:1.0000; stroke:none;">
<circle cx="116.8400" cy="66.0400" r="0.8000" /> 
</g>
<g style="fill:#000000; fill-opacity:1.0000; stroke:none;">
<circle cx="116.8400" cy="63.5000" r="0.8000" /> 
</g>
<g style="fill:#000000; fill-opacity:1.0000; stroke:none;">
<circle cx="116.8400" cy="60.9600" r="0.8000" /> 
</g>
<g style="fill:#000000; fill-opacity:1.0000; stroke:none;">
<circle cx="116.8400" cy="58.4200" r="0.8000" /> 
</g>
<g style="fill:#000000; fill-opacity:1.0000; stroke:none;">
<circle cx="116.8400" cy="55.8800" r="0.8000" /> 
</g>
<g style="fill:#000000; fill-opacity:1.0000; stroke:none;">
<circle cx="116.8400" cy="53.3400" r="0.8000" /> 
</g>
<g style="fill:#000000; fill-opacity:1.0000; stroke:none;">
<circle cx="116.8400" cy="50.8000" r="0.8000" /> 
<path style="fill:#000000; fill-opacity:1.0000; stroke:none;fill-rule:evenodd;"
d="M 103.3400,52.7900
103.3590,52.6943
103.4132,52.6132
103.4943,52.5590
103.5900,52.5400
104.6900,52.5400
104.7857,52.5590
104.8668,52.6132
104.9210,52.6943
104.9400,52.7900
104.9400,53.8900
104.9210,53.9857
104.8668,54.0668
104.7857,54.1210
104.6900,54.1400
103.5900,54.1400
103.4943,54.1210
103.4132,54.0668
103.3590,53.9857
103.3400,53.8900
Z" /> 
</g>
<g style="fill:#000000; fill-opacity:1.0000; stroke:none;">
<circle cx="104.1400" cy="55.8800" r="0.8000" /> 
</g>
<g style="fill:#000000; fill-opacity:1.0000; stroke:none;">
<circle cx="104.1400" cy="58.4200" r="0.8000" /> 
</g>
<g style="fill:#000000; fill-opacity:1.0000; stroke:none;">
<circle cx="104.1400" cy="60.9600" r="0.8000" /> 
</g>
<g style="fill:#000000; fill-opacity:1.0000; stroke:none;">
<circle cx="104.1400" cy="63.5000" r="0.8000" /> 
</g>
<g style="fill:#000000; fill-opacity:1.0000; stroke:none;">
<circle cx="104.1400" cy="66.0400" r="0.8000" /> 
</g>
<g style="fill:#000000; fill-opacity:1.0000; stroke:none;">
<circle cx="104.1400" cy="68.5800" r="0.8000" /> 
</g>
<g style="fill:#000000; fill-opacity:1.0000; stroke:none;">
<circle cx="104.1400" cy="71.1200" r="0.8000" /> 
</g>
<g style="fill:#000000; fill-opacity:1.0000; stroke:none;">
<circle cx="104.1400" cy="73.6600" r="0.8000" /> 
</g>
<g style="fill:#000000; fill-opacity:1.0000; stroke:none;">
<circle cx="104.1400" cy="76.2000" r="0.8000" /> 
</g>
<g style="fill:#000000; fill-opacity:1.0000; stroke:none;">
<circle cx="111.7600" cy="76.2000" r="0.8000" /> 
</g>
<g style="fill:#000000; fill-opacity:1.0000; stroke:none;">
<circle cx="111.7600" cy="73.6600" r="0.8000" /> 
</g>
<g style="fill:#000000; fill-opacity:1.0000; stroke:none;">
<circle cx="111.7600" cy="71.1200" r="0.8000" /> 
</g>
<g style="fill:#000000; fill-opacity:1.0000; stroke:none;">
<circle cx="111.7600" cy="68.5800" r="0.8000" /> 
</g>
<g style="fill:#000000; fill-opacity:1.0000; stroke:none;">
<circle cx="111.7600" cy="66.0400" r="0.8000" /> 
</g>
<g style="fill:#000000; fill-opacity:1.0000; stroke:none;">
<circle cx="111.7600" cy="63.5000" r="0.8000" /> 
</g>
<g style="fill:#000000; fill-opacity:1.0000; stroke:none;">
<circle cx="111.7600" cy="60.9600" r="0.8000" /> 
</g>
<g style="fill:#000000; fill-opacity:1.0000; stroke:none;">
<circle cx="111.7600" cy="58.4200" r="0.8000" /> 
</g>
<g style="fill:#000000; fill-opacity:1.0000; stroke:none;">
<circle cx="111.7600" cy="55.8800" r="0.8000" /> 
</g>
<g style="fill:#000000; fill-opacity:1.0000; stroke:none;">
<circle cx="111.7600" cy="53.3400" r="0.8000" /> 
<path style="fill:#000000; fill-opacity:1.0000; stroke:none;fill-rule:evenodd;"
d="M 130.3400,91.9900
130.3210,92.0857
130.2668,92.1668
130.1857,92.2210
130.0900,92.2400
128.9900,92.2400
128.8943,92.2210
128.8132,92.1668
128.7590,92.0857
128.7400,91.9900
128.7400,90.8900
128.7590,90.7943
128.8132,90.7132
128.8943,90.6590
128.9900,90.6400
130.0900,90.6400
130.1857,90.6590
130.2668,90.7132
130.3210,90.7943
130.3400,90.8900
Z" /> 
</g>
<g style="fill:#000000; fill-opacity:1.0000; stroke:none;">
<circle cx="129.5400" cy="88.9000" r="0.8000" /> 
</g>
<g style="fill:#000000; fill-opacity:1.0000; stroke:none;">
<circle cx="129.5400" cy="86.3600" r="0.8000" /> 
</g>
<g style="fill:#000000; fill-opacity:1.0000; stroke:none;">
<circle cx="129.5400" cy="83.8200" r="0.8000" /> 
</g>
<g style="fill:#000000; fill-opacity:1.0000; stroke:none;">
<circle cx="129.5400" cy="81.2800" r="0.8000" /> 
</g>
<g style="fill:#000000; fill-opacity:1.0000; stroke:none;">
<circle cx="129.5400" cy="78.7400" r="0.8000" /> 
</g>
<g style="fill:#000000; fill-opacity:1.0000; stroke:none;">
<circle cx="129.5400" cy="76.2000" r="0.8000" /> 
</g>
<g style="fill:#000000; fill-opacity:1.0000; stroke:none;">
<circle cx="129.5400" cy="73.6600" r="0.8000" /> 
</g>
<g style="fill:#000000; fill-opacity:1.0000; stroke:none;">
<circle cx="129.5400" cy="71.1200" r="0.8000" /> 
</g>
<g style="fill:#000000; fill-opacity:1.0000; stroke:none;">
<circle cx="129.5400" cy="68.5800" r="0.8000" /> 
</g>
<g style="fill:#000000; fill-opacity:1.0000; stroke:none;">
<circle cx="129.5400" cy="66.0400" r="0.8000" /> 
</g>
<g style="fill:#000000; fill-opacity:1.0000; stroke:none;">
<circle cx="129.5400" cy="63.5000" r="0.8000" /> 
</g>
<g style="fill:#000000; fill-opacity:1.0000; stroke:none;">
<circle cx="129.5400" cy="60.9600" r="0.8000" /> 
</g>
<g style="fill:#000000; fill-opacity:1.0000; stroke:none;">
<circle cx="129.5400" cy="58.4200" r="0.8000" /> 
</g>
<g style="fill:#000000; fill-opacity:1.0000; stroke:none;">
<circle cx="121.9200" cy="58.4200" r="0.8000" /> 
</g>
<g style="fill:#000000; fill-opacity:1.0000; stroke:none;">
<circle cx="121.9200" cy="60.9600" r="0.8000" /> 
</g>
<g style="fill:#000000; fill-opacity:1.0000; stroke:none;">
<circle cx="121.9200" cy="63.5000" r="0.8000" /> 
</g>
<g style="fill:#000000; fill-opacity:1.0000; stroke:none;">
<circle cx="121.9200" cy="66.0400" r="0.8000" /> 
</g>
<g style="fill:#000000; fill-opacity:1.0000; stroke:none;">
<circle cx="121.9200" cy="68.5800" r="0.8000" /> 
</g>
<g style="fill:#000000; fill-opacity:1.0000; stroke:none;">
<circle cx="121.9200" cy="71.1200" r="0.8000" /> 
</g>
<g style="fill:#000000; fill-opacity:1.0000; stroke:none;">
<circle cx="121.9200" cy="73.6600" r="0.8000" /> 
</g>
<g style="fill:#000000; fill-opacity:1.0000; stroke:none;">
<circle cx="121.9200" cy="76.2000" r="0.8000" /> 
</g>
<g style="fill:#000000; fill-opacity:1.0000; stroke:none;">
<circle cx="121.9200" cy="78.7400" r="0.8000" /> 
</g>
<g style="fill:#000000; fill-opacity:1.0000; stroke:none;">
<circle cx="121.9200" cy="81.2800" r="0.8000" /> 
</g>
<g style="fill:#000000; fill-opacity:1.0000; stroke:none;">
<circle cx="121.9200" cy="83.8200" r="0.8000" /> 
</g>
<g style="fill:#000000; fill-opacity:1.0000; stroke:none;">
<circle cx="121.9200" cy="86.3600" r="0.8000" /> 
</g>
<g style="fill:#000000; fill-opacity:1.0000; stroke:none;">
<circle cx="121.9200" cy="88.9000" r="0.8000" /> 
</g>
<g style="fill:#000000; fill-opacity:1.0000; stroke:none;">
<circle cx="121.9200" cy="91.4400" r="0.8000" /> 
</g>
<g style="fill:#000000; fill-opacity:1.0000; stroke:none;">
<circle cx="142.7900" cy="47.8700" r="0.6000" /> 
</g>
<g style="fill:#000000; fill-opacity:1.0000; stroke:none;">
<circle cx="97.7900" cy="47.8700" r="0.6000" /> 
</g>
<g style="fill:#000000; fill-opacity:1.0000; stroke:none;">
<circle cx="97.7900" cy="102.8700" r="0.6000" /> 
</g>
<g style="fill:#000000; fill-opacity:1.0000; stroke:none;">
<circle cx="142.7900" cy="102.8700" r="0.6000" /> 
</g>
<g style="fill:#000000; fill-opacity:1.0000; stroke:none;">
<circle cx="113.0300" cy="88.9000" r="0.6000" /> 
</g>
<g style="fill:#000000; fill-opacity:1.0000; stroke:none;">
<circle cx="119.3800" cy="73.6600" r="0.6000" /> 
</g>
<g style="fill:#000000; fill-opacity:1.0000; stroke:none;">
<circle cx="119.3800" cy="71.1200" r="0.6000" /> 
</g>
<g style="fill:none; 
stroke:#000000; stroke-width:0.2500; stroke-opacity:1; 
stroke-linecap:round; stroke-linejoin:round;">
<path d="M104.1400 76.2000
L111.7600 76.2000
" />
<path d="M130.4290 90.1700
L123.1900 90.1700
" />
<path d="M123.1900 90.1700
L121.9200 91.4400
" />
<path d="M131.6990 91.4400
L130.4290 90.1700
" />
<path d="M132.0800 91.4400
L131.6990 91.4400
" />
<path d="M141.6250 56.5150
L141.6050 56.5150
" />
<path d="M131.6990 67.3100
L130.4290 66.0400
" />
<path d="M141.6250 64.1150
L141.6250 56.5150
" />
<path d="M139.7000 66.0400
L138.4300 67.3100
" />
<path d="M139.7000 66.0400
L141.6250 64.1150
" />
<path d="M139.7000 54.6100
L139.7000 53.3400
" />
<path d="M130.4290 66.0400
L129.5400 66.0400
" />
<path d="M141.6050 56.5150
L139.7000 54.6100
" />
<path d="M138.4300 67.3100
L131.6990 67.3100
" />
<path d="M120.7770 57.5194
L120.7770 57.5310
" />
<path d="M120.7770 57.5310
L121.6660 56.6420
" />
<path d="M121.6660 56.6420
L127.5080 56.6420
" />
<path d="M131.5720 60.9600
L130.3020 59.6900
" />
<path d="M130.3020 59.6900
L123.1900 59.6900
" />
<path d="M129.5400 54.6100
L129.5400 53.3400
" />
<path d="M120.7770 57.5310
L120.7770 59.8170
" />
<path d="M132.0800 60.9600
L131.5720 60.9600
" />
<path d="M127.5080 56.6420
L129.5400 54.6100
" />
<path d="M120.7770 59.8170
L121.9200 60.9600
" />
<path d="M123.1900 59.6900
L121.9200 60.9600
" />
<path d="M130.4290 60.9600
L129.5400 60.9600
" />
<path d="M140.8010 57.5310
L140.4200 57.1500
" />
<path d="M139.7000 60.9600
L138.4300 62.2300
" />
<path d="M134.6200 54.7370
L134.6200 53.3400
" />
<path d="M140.8010 59.8590
L140.8010 57.5310
" />
<path d="M139.7000 60.9600
L140.8010 59.8590
" />
<path d="M140.4200 57.1500
L137.0330 57.1500
" />
<path d="M137.0330 57.1500
L134.6200 54.7370
" />
<path d="M131.6990 62.2300
L130.4290 60.9600
" />
<path d="M138.4300 62.2300
L131.6990 62.2300
" />
<path d="M119.2530 56.0070
L121.9200 53.3400
" />
<path d="M132.0800 68.5800
L131.5720 68.5800
" />
<path d="M130.3020 67.3100
L123.1900 67.3100
" />
<path d="M131.5720 68.5800
L130.3020 67.3100
" />
<path d="M121.9200 68.5800
L119.2530 65.9130
" />
<path d="M123.1900 67.3100
L121.9200 68.5800
" />
<path d="M119.2530 65.9130
L119.2530 56.0070
" />
<path d="M139.7000 63.5000
L141.2240 61.9760
" />
<path d="M137.1600 54.4830
L137.1600 53.3400
" />
<path d="M139.7000 63.5000
L138.4300 64.7700
" />
<path d="M138.4300 64.7700
L131.6990 64.7700
" />
<path d="M131.6990 64.7700
L130.4290 63.5000
" />
<path d="M130.4290 63.5000
L129.5400 63.5000
" />
<path d="M141.2240 56.9076
L140.1964 55.8800
" />
<path d="M141.2240 61.9760
L141.2240 56.9076
" />
<path d="M138.5570 55.8800
L137.1600 54.4830
" />
<path d="M140.1964 55.8800
L138.5570 55.8800
" />
<path d="M123.4440 55.2450
L124.4600 54.2290
" />
<path d="M119.7610 56.6420
L121.1580 55.2450
" />
<path d="M119.7610 63.8810
L119.7610 56.6420
" />
<path d="M131.5720 66.0400
L130.3020 64.7700
" />
<path d="M124.4600 54.2290
L124.4600 53.3400
" />
<path d="M121.1580 55.2450
L123.4440 55.2450
" />
<path d="M123.1900 64.7700
L121.9200 66.0400
" />
<path d="M130.3020 64.7700
L123.1900 64.7700
" />
<path d="M132.0800 66.0400
L131.5720 66.0400
" />
<path d="M121.9200 66.0400
L119.7610 63.8810
" />
<path d="M130.9790 57.3190
L130.8100 57.3190
" />
<path d="M132.0800 58.4200
L130.9790 57.3190
" />
<path d="M130.8100 57.3190
L123.0210 57.3190
" />
<path d="M123.0210 57.3190
L121.9200 58.4200
" />
<path d="M132.0800 53.3400
L132.0800 58.4200
" />
<path d="M100.3300 65.3288
L100.8888 64.7700
" />
<path d="M117.7290 90.1700
L116.2050 90.1700
" />
<path d="M101.0920 87.6300
L100.3300 86.8680
" />
<path d="M113.6650 87.6300
L101.0920 87.6300
" />
<path d="M100.3300 86.8680
L100.3300 65.3288
" />
<path d="M123.1900 87.6300
L121.9200 88.9000
" />
<path d="M130.3020 87.6300
L123.1900 87.6300
" />
<path d="M116.2050 90.1700
L113.6650 87.6300
" />
<path d="M121.9200 88.9000
L118.9990 88.9000
" />
<path d="M116.8400 55.8800
L115.5700 57.1500
" />
<path d="M110.4900 57.1500
L104.1400 63.5000
" />
<path d="M115.5700 57.1500
L110.4900 57.1500
" />
<path d="M100.8888 64.7700
L102.8700 64.7700
" />
<path d="M131.5720 88.9000
L130.3020 87.6300
" />
<path d="M132.0800 88.9000
L131.5720 88.9000
" />
<path d="M102.8700 64.7700
L104.1400 63.5000
" />
<path d="M118.9990 88.9000
L117.7290 90.1700
" />
<path d="M104.1400 53.3400
L101.6000 53.3400
" />
<path d="M116.8400 58.4200
L111.7600 58.4200
" />
<path d="M130.3020 72.3900
L124.3330 72.3900
" />
<path d="M131.5720 73.6600
L130.3020 72.3900
" />
<path d="M124.3330 72.3900
L123.0630 73.6600
" />
<path d="M123.0630 73.6600
L121.9200 73.6600
" />
<path d="M122.5550 77.4700
L102.8700 77.4700
" />
<path d="M131.6990 77.4700
L130.4290 76.2000
" />
<path d="M123.8250 76.2000
L122.5550 77.4700
" />
<path d="M102.8700 77.4700
L101.6000 76.2000
" />
<path d="M129.5400 76.2000
L123.8250 76.2000
" />
<path d="M130.4290 76.2000
L129.5400 76.2000
" />
<path d="M138.4300 77.4700
L131.6990 77.4700
" />
<path d="M139.7000 76.2000
L138.4300 77.4700
" />
<path d="M130.3020 80.0100
L123.6980 80.0100
" />
<path d="M122.4280 81.2800
L121.9200 81.2800
" />
<path d="M131.5720 81.2800
L130.3020 80.0100
" />
<path d="M132.0800 81.2800
L131.5720 81.2800
" />
<path d="M123.6980 80.0100
L122.4280 81.2800
" />
<path d="M131.4450 86.3600
L130.1750 85.0900
" />
<path d="M122.5550 86.3600
L121.9200 86.3600
" />
<path d="M123.8250 85.0900
L122.5550 86.3600
" />
<path d="M132.0800 86.3600
L131.4450 86.3600
" />
<path d="M130.1750 85.0900
L123.8250 85.0900
" />
<path d="M122.3010 83.8200
L121.9200 83.8200
" />
<path d="M132.0800 83.8200
L131.5720 83.8200
" />
<path d="M131.5720 83.8200
L130.3020 82.5500
" />
<path d="M130.3020 82.5500
L123.5710 82.5500
" />
<path d="M113.0300 88.9000
L101.6000 88.9000
" />
<path d="M123.5710 82.5500
L122.3010 83.8200
" />
<path d="M138.4300 74.9300
L131.5720 74.9300
" />
<path d="M139.7000 73.6600
L138.4300 74.9300
" />
<path d="M102.8700 74.9300
L101.6000 73.6600
" />
<path d="M123.0630 74.2950
L122.4280 74.9300
" />
<path d="M131.5720 74.9300
L130.3020 73.6600
" />
<path d="M122.4280 74.9300
L102.8700 74.9300
" />
<path d="M129.5400 73.6600
L129.4822 73.6600
" />
<path d="M128.8472 74.2950
L123.0630 74.2950
" />
<path d="M129.4822 73.6600
L128.8472 74.2950
" />
<path d="M130.3020 73.6600
L129.5400 73.6600
" />
<path d="M102.8700 85.0900
L101.6000 83.8200
" />
<path d="M129.5400 83.8200
L123.6980 83.8200
" />
<path d="M139.7000 83.8200
L138.4300 85.0900
" />
<path d="M130.1750 83.8200
L129.5400 83.8200
" />
<path d="M138.4300 85.0900
L131.4450 85.0900
" />
<path d="M122.4280 85.0900
L102.8700 85.0900
" />
<path d="M131.4450 85.0900
L130.1750 83.8200
" />
<path d="M123.6980 83.8200
L122.4280 85.0900
" />
<path d="M102.8700 80.0100
L101.6000 78.7400
" />
<path d="M138.4300 80.0100
L131.4450 80.0100
" />
<path d="M129.5400 78.7400
L123.8250 78.7400
" />
<path d="M130.1750 78.7400
L129.5400 78.7400
" />
<path d="M123.8250 78.7400
L122.5550 80.0100
" />
<path d="M131.4450 80.0100
L130.1750 78.7400
" />
<path d="M139.7000 78.7400
L138.4300 80.0100
" />
<path d="M122.5550 80.0100
L102.8700 80.0100
" />
<path d="M138.4300 87.6300
L131.5085 87.6300
" />
<path d="M114.5540 86.3600
L101.6000 86.3600
" />
<path d="M129.5400 86.3600
L123.6980 86.3600
" />
<path d="M122.4280 87.6300
L115.8240 87.6300
" />
<path d="M123.6980 86.3600
L122.4280 87.6300
" />
<path d="M139.7000 86.3600
L138.4300 87.6300
" />
<path d="M115.8240 87.6300
L114.5540 86.3600
" />
<path d="M130.2385 86.3600
L129.5400 86.3600
" />
<path d="M131.5085 87.6300
L130.2385 86.3600
" />
<path d="M129.5400 91.4400
L128.2700 92.7100
" />
<path d="M128.2700 92.7100
L118.1100 92.7100
" />
<path d="M139.7000 91.4400
L138.4300 92.7100
" />
<path d="M130.8100 92.7100
L129.5400 91.4400
" />
<path d="M118.1100 92.7100
L116.8400 93.9800
" />
<path d="M138.4300 92.7100
L130.8100 92.7100
" />
<path d="M122.4280 82.5500
L102.8700 82.5500
" />
<path d="M130.1750 81.2800
L129.5400 81.2800
" />
<path d="M138.4300 82.5500
L131.4450 82.5500
" />
<path d="M131.4450 82.5500
L130.1750 81.2800
" />
<path d="M123.6980 81.2800
L122.4280 82.5500
" />
<path d="M102.8700 82.5500
L101.6000 81.2800
" />
<path d="M129.5400 81.2800
L123.6980 81.2800
" />
<path d="M139.7000 81.2800
L138.4300 82.5500
" />
<path d="M116.8400 99.0600
L122.8090 93.0910
" />
<path d="M138.4300 90.1700
L131.6990 90.1700
" />
<path d="M139.9352 93.0910
L140.8010 92.2252
" />
<path d="M130.4290 88.9000
L129.5400 88.9000
" />
<path d="M140.8010 90.0010
L139.7000 88.9000
" />
<path d="M140.8010 92.2252
L140.8010 90.0010
" />
<path d="M139.7000 88.9000
L138.4300 90.1700
" />
<path d="M122.8090 93.0910
L139.9352 93.0910
" />
<path d="M131.6990 90.1700
L130.4290 88.9000
" />
<path d="M119.3800 73.6600
L120.2690 72.7710
" />
<path d="M131.6990 72.3900
L130.4290 71.1200
" />
<path d="M118.4910 72.7710
L119.3800 73.6600
" />
<path d="M130.4290 71.1200
L129.5400 71.1200
" />
<path d="M120.2690 72.7710
L121.0310 72.7710
" />
</g>
<g style="fill:none; 
stroke:#000000; stroke-width:0.2000; stroke-opacity:1; 
stroke-linecap:round; stroke-linejoin:round;">
<path d="M117.5100 72.7710
L117.7290 72.7710
" />
</g>
<g style="fill:none; 
stroke:#000000; stroke-width:0.2500; stroke-opacity:1; 
stroke-linecap:round; stroke-linejoin:round;">
<path d="M139.7000 71.1200
L138.4300 72.3900
" />
</g>
<g style="fill:none; 
stroke:#000000; stroke-width:0.2000; stroke-opacity:1; 
stroke-linecap:round; stroke-linejoin:round;">
<path d="M116.2106 72.6970
L116.2986 72.6090
" />
</g>
<g style="fill:none; 
stroke:#000000; stroke-width:0.2500; stroke-opacity:1; 
stroke-linecap:round; stroke-linejoin:round;">
<path d="M101.6000 71.2127
L101.6000 71.1200
" />
<path d="M114.6556 72.3900
L102.7773 72.3900
" />
<path d="M121.0310 72.7710
L121.4120 72.3900
" />
</g>
<g style="fill:none; 
stroke:#000000; stroke-width:0.2000; stroke-opacity:1; 
stroke-linecap:round; stroke-linejoin:round;">
<path d="M117.3480 72.6090
L117.5100 72.7710
" />
<path d="M116.2986 72.6090
L117.3480 72.6090
" />
</g>
<g style="fill:none; 
stroke:#000000; stroke-width:0.2500; stroke-opacity:1; 
stroke-linecap:round; stroke-linejoin:round;">
<path d="M121.4120 72.3900
L122.5715 72.3900
" />
</g>
<g style="fill:none; 
stroke:#000000; stroke-width:0.2000; stroke-opacity:1; 
stroke-linecap:round; stroke-linejoin:round;">
<path d="M115.9510 72.6970
L116.2106 72.6970
" />
</g>
<g style="fill:none; 
stroke:#000000; stroke-width:0.2500; stroke-opacity:1; 
stroke-linecap:round; stroke-linejoin:round;">
<path d="M138.4300 72.3900
L131.6990 72.3900
" />
<path d="M114.9626 72.6970
L114.6556 72.3900
" />
<path d="M102.7773 72.3900
L101.6000 71.2127
" />
<path d="M122.5715 72.3900
L123.8415 71.1200
" />
<path d="M115.9510 72.6970
L114.9626 72.6970
" />
<path d="M117.7290 72.7710
L118.4910 72.7710
" />
<path d="M123.8415 71.1200
L129.5400 71.1200
" />
<path d="M137.9220 69.8500
L131.6990 69.8500
" />
<path d="M124.5870 68.5800
L123.3170 69.8500
" />
<path d="M102.8700 69.8500
L101.6000 68.5800
" />
<path d="M139.1920 68.5800
L137.9220 69.8500
" />
<path d="M129.5400 68.5800
L124.5870 68.5800
" />
<path d="M123.3170 69.8500
L102.8700 69.8500
" />
<path d="M130.4290 68.5800
L129.5400 68.5800
" />
<path d="M131.6990 69.8500
L130.4290 68.5800
" />
<path d="M139.7000 68.5800
L139.1920 68.5800
" />
<path d="M131.5720 78.7400
L130.3020 77.4700
" />
<path d="M132.0800 78.7400
L131.5720 78.7400
" />
<path d="M130.3020 77.4700
L123.6980 77.4700
" />
<path d="M122.4280 78.7400
L121.9200 78.7400
" />
<path d="M123.6980 77.4700
L122.4280 78.7400
" />
<path d="M121.4120 56.0070
L125.4760 56.0070
" />
<path d="M125.4760 56.0070
L127.0000 54.4830
" />
<path d="M120.2690 57.1500
L121.4120 56.0070
" />
<path d="M120.2690 61.8490
L120.2690 57.1500
" />
<path d="M130.3261 62.2300
L123.1900 62.2300
" />
<path d="M127.0000 54.4830
L127.0000 53.3400
" />
<path d="M131.5961 63.5000
L130.3261 62.2300
" />
<path d="M132.0800 63.5000
L131.5961 63.5000
" />
<path d="M121.9200 63.5000
L120.2690 61.8490
" />
<path d="M123.1900 62.2300
L121.9200 63.5000
" />
<path d="M111.7600 55.8800
L114.3000 55.8800
" />
<path d="M111.7600 66.0400
L114.3000 66.0400
" />
<path d="M111.7600 63.5000
L114.3000 63.5000
" />
<path d="M111.7600 60.9600
L114.3000 60.9600
" />
<path d="M137.7950 71.1200
L132.0800 71.1200
" />
<path d="M118.7450 65.9130
L118.7450 52.1970
" />
<path d="M114.3000 68.5800
L115.5700 67.3100
" />
<path d="M118.7450 52.1970
L120.0150 50.9270
" />
<path d="M111.7600 68.5800
L114.3000 68.5800
" />
<path d="M120.0150 50.9270
L140.4620 50.9270
" />
<path d="M142.1130 68.1990
L140.4620 69.8500
" />
<path d="M117.3480 67.3100
L118.7450 65.9130
" />
<path d="M139.0650 69.8500
L137.7950 71.1200
" />
<path d="M142.1130 52.5780
L142.1130 68.1990
" />
<path d="M140.4620 50.9270
L142.1130 52.5780
" />
<path d="M140.4620 69.8500
L139.0650 69.8500
" />
<path d="M115.5700 67.3100
L117.3480 67.3100
" />
<path d="M116.0780 72.1710
L115.2113 72.1710
" />
<path d="M117.6020 72.1710
L120.8690 72.1710
" />
<path d="M120.8690 72.1710
L121.9200 71.1200
" />
<path d="M121.9200 71.1200
L119.3800 71.1200
" />
<path d="M114.1603 71.1200
L111.7600 71.1200
" />
</g>
<g style="fill:none; 
stroke:#000000; stroke-width:0.2000; stroke-opacity:1; 
stroke-linecap:round; stroke-linejoin:round;">
<path d="M117.6020 72.1710
L116.0780 72.1710
" />
</g>
<g style="fill:none; 
stroke:#000000; stroke-width:0.2500; stroke-opacity:1; 
stroke-linecap:round; stroke-linejoin:round;">
<path d="M115.2113 72.1710
L114.1603 71.1200
" />
<path d="M132.0088 76.2000
L130.7388 74.9300
" />
<path d="M122.5550 76.2000
L121.9200 76.2000
" />
<path d="M132.0800 76.2000
L132.0088 76.2000
" />
<path d="M111.7600 73.6600
L114.3000 73.6600
" />
<path d="M123.8250 74.9300
L122.5550 76.2000
" />
<path d="M130.7388 74.9300
L123.8250 74.9300
" />
<path d="M104.1400 55.8800
L101.6000 55.8800
" />
<path d="M104.1400 60.9600
L101.6000 60.9600
" />
<path d="M104.1400 58.4200
L101.6000 58.4200
" />
</g> 
</svg>
