<?xml version="1.0" standalone="no"?>
 <!DOCTYPE svg PUBLIC "-//W3C//DTD SVG 1.1//EN" 
 "http://www.w3.org/Graphics/SVG/1.1/DTD/svg11.dtd"> 
<svg
  xmlns:svg="http://www.w3.org/2000/svg"
  xmlns="http://www.w3.org/2000/svg"
  xmlns:xlink="http://www.w3.org/1999/xlink"
  version="1.1"
  width="297.0022mm" height="210.0072mm" viewBox="0.0000 0.0000 297.0022 210.0072">
<title>SVG Image created as a8sram-F_Cu.svg date 2025/10/18 19:59:29 </title>
  <desc>Image generated by PCBNEW </desc>
<g style="fill:#000000; fill-opacity:1.0000;stroke:#000000; stroke-opacity:1.0000;
stroke-linecap:round; stroke-linejoin:round;"
 transform="translate(0 0) scale(1 1)">
<path style="fill:#000000; fill-opacity:1.0000; stroke:none;fill-rule:evenodd;"
d="M 113.8770,50.0500
114.4270,50.0500
114.4270,50.0543
114.4923,50.0543
114.6183,50.0881
114.7314,50.1533
114.8237,50.2456
114.8889,50.3587
114.9227,50.4847
114.9227,50.5500
114.9270,50.5500
114.9270,51.0500
114.9227,51.0500
114.9227,51.1153
114.8889,51.2413
114.8237,51.3544
114.7314,51.4467
114.6183,51.5119
114.4923,51.5457
114.4270,51.5457
114.4270,51.5500
113.8770,51.5500
Z" /> 
<path style="fill:#000000; fill-opacity:1.0000; stroke:none;fill-rule:evenodd;"
d="M 113.6270,50.0500
113.6270,51.5500
112.6270,51.5500
112.6270,50.0500
Z" /> 
<path style="fill:#000000; fill-opacity:1.0000; stroke:none;fill-rule:evenodd;"
d="M 111.8270,51.5457
111.7617,51.5457
111.6357,51.5119
111.5226,51.4467
111.4303,51.3544
111.3651,51.2413
111.3313,51.1153
111.3313,51.0500
111.3270,51.0500
111.3270,50.5500
111.3313,50.5500
111.3313,50.4847
111.3651,50.3587
111.4303,50.2456
111.5226,50.1533
111.6357,50.0881
111.7617,50.0543
111.8270,50.0543
111.8270,50.0500
112.3770,50.0500
112.3770,51.5500
111.8270,51.5500
Z" /> 
<path style="fill:#000000; fill-opacity:1.0000; stroke:none;fill-rule:evenodd;"
d="M 140.5000,91.9900
140.4810,92.0857
140.4268,92.1668
140.3457,92.2210
140.2500,92.2400
139.1500,92.2400
139.0543,92.2210
138.9732,92.1668
138.9190,92.0857
138.9000,91.9900
138.9000,90.8900
138.9190,90.7943
138.9732,90.7132
139.0543,90.6590
139.1500,90.6400
140.2500,90.6400
140.3457,90.6590
140.4268,90.7132
140.4810,90.7943
140.5000,90.8900
Z" /> 
</g>
<g style="fill:#000000; fill-opacity:1.0000; stroke:none;">
<circle cx="139.7000" cy="88.9000" r="0.8000" /> 
</g>
<g style="fill:#000000; fill-opacity:1.0000; stroke:none;">
<circle cx="139.7000" cy="86.3600" r="0.8000" /> 
</g>
<g style="fill:#000000; fill-opacity:1.0000; stroke:none;">
<circle cx="139.7000" cy="83.8200" r="0.8000" /> 
</g>
<g style="fill:#000000; fill-opacity:1.0000; stroke:none;">
<circle cx="139.7000" cy="81.2800" r="0.8000" /> 
</g>
<g style="fill:#000000; fill-opacity:1.0000; stroke:none;">
<circle cx="139.7000" cy="78.7400" r="0.8000" /> 
</g>
<g style="fill:#000000; fill-opacity:1.0000; stroke:none;">
<circle cx="139.7000" cy="76.2000" r="0.8000" /> 
</g>
<g style="fill:#000000; fill-opacity:1.0000; stroke:none;">
<circle cx="139.7000" cy="73.6600" r="0.8000" /> 
</g>
<g style="fill:#000000; fill-opacity:1.0000; stroke:none;">
<circle cx="139.7000" cy="71.1200" r="0.8000" /> 
</g>
<g style="fill:#000000; fill-opacity:1.0000; stroke:none;">
<circle cx="139.7000" cy="68.5800" r="0.8000" /> 
</g>
<g style="fill:#000000; fill-opacity:1.0000; stroke:none;">
<circle cx="139.7000" cy="66.0400" r="0.8000" /> 
</g>
<g style="fill:#000000; fill-opacity:1.0000; stroke:none;">
<circle cx="139.7000" cy="63.5000" r="0.8000" /> 
</g>
<g style="fill:#000000; fill-opacity:1.0000; stroke:none;">
<circle cx="139.7000" cy="60.9600" r="0.8000" /> 
</g>
<g style="fill:#000000; fill-opacity:1.0000; stroke:none;">
<circle cx="139.7000" cy="58.4200" r="0.8000" /> 
</g>
<g style="fill:#000000; fill-opacity:1.0000; stroke:none;">
<circle cx="132.0800" cy="58.4200" r="0.8000" /> 
</g>
<g style="fill:#000000; fill-opacity:1.0000; stroke:none;">
<circle cx="132.0800" cy="60.9600" r="0.8000" /> 
</g>
<g style="fill:#000000; fill-opacity:1.0000; stroke:none;">
<circle cx="132.0800" cy="63.5000" r="0.8000" /> 
</g>
<g style="fill:#000000; fill-opacity:1.0000; stroke:none;">
<circle cx="132.0800" cy="66.0400" r="0.8000" /> 
</g>
<g style="fill:#000000; fill-opacity:1.0000; stroke:none;">
<circle cx="132.0800" cy="68.5800" r="0.8000" /> 
</g>
<g style="fill:#000000; fill-opacity:1.0000; stroke:none;">
<circle cx="132.0800" cy="71.1200" r="0.8000" /> 
</g>
<g style="fill:#000000; fill-opacity:1.0000; stroke:none;">
<circle cx="132.0800" cy="73.6600" r="0.8000" /> 
</g>
<g style="fill:#000000; fill-opacity:1.0000; stroke:none;">
<circle cx="132.0800" cy="76.2000" r="0.8000" /> 
</g>
<g style="fill:#000000; fill-opacity:1.0000; stroke:none;">
<circle cx="132.0800" cy="78.7400" r="0.8000" /> 
</g>
<g style="fill:#000000; fill-opacity:1.0000; stroke:none;">
<circle cx="132.0800" cy="81.2800" r="0.8000" /> 
</g>
<g style="fill:#000000; fill-opacity:1.0000; stroke:none;">
<circle cx="132.0800" cy="83.8200" r="0.8000" /> 
</g>
<g style="fill:#000000; fill-opacity:1.0000; stroke:none;">
<circle cx="132.0800" cy="86.3600" r="0.8000" /> 
</g>
<g style="fill:#000000; fill-opacity:1.0000; stroke:none;">
<circle cx="132.0800" cy="88.9000" r="0.8000" /> 
</g>
<g style="fill:#000000; fill-opacity:1.0000; stroke:none;">
<circle cx="132.0800" cy="91.4400" r="0.8000" /> 
<path style="fill:#000000; fill-opacity:1.0000; stroke:none;fill-rule:evenodd;"
d="M 113.5000,52.5400
115.1000,52.5400
115.1000,54.1400
113.5000,54.1400
Z" /> 
</g>
<g style="fill:#000000; fill-opacity:1.0000; stroke:none;">
<circle cx="114.3000" cy="55.8800" r="0.8000" /> 
</g>
<g style="fill:#000000; fill-opacity:1.0000; stroke:none;">
<circle cx="114.3000" cy="58.4200" r="0.8000" /> 
</g>
<g style="fill:#000000; fill-opacity:1.0000; stroke:none;">
<circle cx="114.3000" cy="60.9600" r="0.8000" /> 
</g>
<g style="fill:#000000; fill-opacity:1.0000; stroke:none;">
<circle cx="114.3000" cy="63.5000" r="0.8000" /> 
</g>
<g style="fill:#000000; fill-opacity:1.0000; stroke:none;">
<circle cx="114.3000" cy="66.0400" r="0.8000" /> 
</g>
<g style="fill:#000000; fill-opacity:1.0000; stroke:none;">
<circle cx="114.3000" cy="68.5800" r="0.8000" /> 
</g>
<g style="fill:#000000; fill-opacity:1.0000; stroke:none;">
<circle cx="114.3000" cy="71.1200" r="0.8000" /> 
</g>
<g style="fill:#000000; fill-opacity:1.0000; stroke:none;">
<circle cx="114.3000" cy="73.6600" r="0.8000" /> 
<path style="fill:#000000; fill-opacity:1.0000; stroke:none;fill-rule:evenodd;"
d="M 138.8500,52.4900
140.5500,52.4900
140.5500,54.1900
138.8500,54.1900
Z" /> 
</g>
<g style="fill:#000000; fill-opacity:1.0000; stroke:none;">
<circle cx="137.1600" cy="53.3400" r="0.8500" /> 
</g>
<g style="fill:#000000; fill-opacity:1.0000; stroke:none;">
<circle cx="134.6200" cy="53.3400" r="0.8500" /> 
</g>
<g style="fill:#000000; fill-opacity:1.0000; stroke:none;">
<circle cx="132.0800" cy="53.3400" r="0.8500" /> 
</g>
<g style="fill:#000000; fill-opacity:1.0000; stroke:none;">
<circle cx="129.5400" cy="53.3400" r="0.8500" /> 
</g>
<g style="fill:#000000; fill-opacity:1.0000; stroke:none;">
<circle cx="127.0000" cy="53.3400" r="0.8500" /> 
</g>
<g style="fill:#000000; fill-opacity:1.0000; stroke:none;">
<circle cx="124.4600" cy="53.3400" r="0.8500" /> 
</g>
<g style="fill:#000000; fill-opacity:1.0000; stroke:none;">
<circle cx="121.9200" cy="53.3400" r="0.8500" /> 
<path style="fill:#000000; fill-opacity:1.0000; stroke:none;fill-rule:evenodd;"
d="M 100.8000,50.2500
100.8190,50.1543
100.8732,50.0732
100.9543,50.0190
101.0500,50.0000
102.1500,50.0000
102.2457,50.0190
102.3268,50.0732
102.3810,50.1543
102.4000,50.2500
102.4000,51.3500
102.3810,51.4457
102.3268,51.5268
102.2457,51.5810
102.1500,51.6000
101.0500,51.6000
100.9543,51.5810
100.8732,51.5268
100.8190,51.4457
100.8000,51.3500
Z" /> 
</g>
<g style="fill:#000000; fill-opacity:1.0000; stroke:none;">
<circle cx="101.6000" cy="53.3400" r="0.8000" /> 
</g>
<g style="fill:#000000; fill-opacity:1.0000; stroke:none;">
<circle cx="101.6000" cy="55.8800" r="0.8000" /> 
</g>
<g style="fill:#000000; fill-opacity:1.0000; stroke:none;">
<circle cx="101.6000" cy="58.4200" r="0.8000" /> 
</g>
<g style="fill:#000000; fill-opacity:1.0000; stroke:none;">
<circle cx="101.6000" cy="60.9600" r="0.8000" /> 
</g>
<g style="fill:#000000; fill-opacity:1.0000; stroke:none;">
<circle cx="101.6000" cy="63.5000" r="0.8000" /> 
</g>
<g style="fill:#000000; fill-opacity:1.0000; stroke:none;">
<circle cx="101.6000" cy="66.0400" r="0.8000" /> 
</g>
<g style="fill:#000000; fill-opacity:1.0000; stroke:none;">
<circle cx="101.6000" cy="68.5800" r="0.8000" /> 
</g>
<g style="fill:#000000; fill-opacity:1.0000; stroke:none;">
<circle cx="101.6000" cy="71.1200" r="0.8000" /> 
</g>
<g style="fill:#000000; fill-opacity:1.0000; stroke:none;">
<circle cx="101.6000" cy="73.6600" r="0.8000" /> 
</g>
<g style="fill:#000000; fill-opacity:1.0000; stroke:none;">
<circle cx="101.6000" cy="76.2000" r="0.8000" /> 
</g>
<g style="fill:#000000; fill-opacity:1.0000; stroke:none;">
<circle cx="101.6000" cy="78.7400" r="0.8000" /> 
</g>
<g style="fill:#000000; fill-opacity:1.0000; stroke:none;">
<circle cx="101.6000" cy="81.2800" r="0.8000" /> 
</g>
<g style="fill:#000000; fill-opacity:1.0000; stroke:none;">
<circle cx="101.6000" cy="83.8200" r="0.8000" /> 
</g>
<g style="fill:#000000; fill-opacity:1.0000; stroke:none;">
<circle cx="101.6000" cy="86.3600" r="0.8000" /> 
</g>
<g style="fill:#000000; fill-opacity:1.0000; stroke:none;">
<circle cx="101.6000" cy="88.9000" r="0.8000" /> 
</g>
<g style="fill:#000000; fill-opacity:1.0000; stroke:none;">
<circle cx="101.6000" cy="91.4400" r="0.8000" /> 
</g>
<g style="fill:#000000; fill-opacity:1.0000; stroke:none;">
<circle cx="101.6000" cy="93.9800" r="0.8000" /> 
</g>
<g style="fill:#000000; fill-opacity:1.0000; stroke:none;">
<circle cx="101.6000" cy="96.5200" r="0.8000" /> 
</g>
<g style="fill:#000000; fill-opacity:1.0000; stroke:none;">
<circle cx="101.6000" cy="99.0600" r="0.8000" /> 
</g>
<g style="fill:#000000; fill-opacity:1.0000; stroke:none;">
<circle cx="116.8400" cy="99.0600" r="0.8000" /> 
</g>
<g style="fill:#000000; fill-opacity:1.0000; stroke:none;">
<circle cx="116.8400" cy="96.5200" r="0.8000" /> 
</g>
<g style="fill:#000000; fill-opacity:1.0000; stroke:none;">
<circle cx="116.8400" cy="93.9800" r="0.8000" /> 
</g>
<g style="fill:#000000; fill-opacity:1.0000; stroke:none;">
<circle cx="116.8400" cy="91.4400" r="0.8000" /> 
</g>
<g style="fill:#000000; fill-opacity:1.0000; stroke:none;">
<circle cx="116.8400" cy="88.9000" r="0.8000" /> 
</g>
<g style="fill:#000000; fill-opacity:1.0000; stroke:none;">
<circle cx="116.8400" cy="86.3600" r="0.8000" /> 
</g>
<g style="fill:#000000; fill-opacity:1.0000; stroke:none;">
<circle cx="116.8400" cy="83.8200" r="0.8000" /> 
</g>
<g style="fill:#000000; fill-opacity:1.0000; stroke:none;">
<circle cx="116.8400" cy="81.2800" r="0.8000" /> 
</g>
<g style="fill:#000000; fill-opacity:1.0000; stroke:none;">
<circle cx="116.8400" cy="78.7400" r="0.8000" /> 
</g>
<g style="fill:#000000; fill-opacity:1.0000; stroke:none;">
<circle cx="116.8400" cy="76.2000" r="0.8000" /> 
</g>
<g style="fill:#000000; fill-opacity:1.0000; stroke:none;">
<circle cx="116.8400" cy="73.6600" r="0.8000" /> 
</g>
<g style="fill:#000000; fill-opacity:1.0000; stroke:none;">
<circle cx="116.8400" cy="71.1200" r="0.8000" /> 
</g>
<g style="fill:#000000; fill-opacity:1.0000; stroke:none;">
<circle cx="116.8400" cy="68.5800" r="0.8000" /> 
</g>
<g style="fill:#000000; fill-opacity:1.0000; stroke:none;">
<circle cx="116.8400" cy="66.0400" r="0.8000" /> 
</g>
<g style="fill:#000000; fill-opacity:1.0000; stroke:none;">
<circle cx="116.8400" cy="63.5000" r="0.8000" /> 
</g>
<g style="fill:#000000; fill-opacity:1.0000; stroke:none;">
<circle cx="116.8400" cy="60.9600" r="0.8000" /> 
</g>
<g style="fill:#000000; fill-opacity:1.0000; stroke:none;">
<circle cx="116.8400" cy="58.4200" r="0.8000" /> 
</g>
<g style="fill:#000000; fill-opacity:1.0000; stroke:none;">
<circle cx="116.8400" cy="55.8800" r="0.8000" /> 
</g>
<g style="fill:#000000; fill-opacity:1.0000; stroke:none;">
<circle cx="116.8400" cy="53.3400" r="0.8000" /> 
</g>
<g style="fill:#000000; fill-opacity:1.0000; stroke:none;">
<circle cx="116.8400" cy="50.8000" r="0.8000" /> 
<path style="fill:#000000; fill-opacity:1.0000; stroke:none;fill-rule:evenodd;"
d="M 135.4200,76.5550
135.3243,76.5360
135.2432,76.4818
135.1890,76.4007
135.1700,76.3050
135.1700,75.6300
135.1890,75.5343
135.2432,75.4532
135.3243,75.3990
135.4200,75.3800
136.3700,75.3800
136.4657,75.3990
136.5468,75.4532
136.6010,75.5343
136.6200,75.6300
136.6200,76.3050
136.6010,76.4007
136.5468,76.4818
136.4657,76.5360
136.3700,76.5550
Z" /> 
<path style="fill:#000000; fill-opacity:1.0000; stroke:none;fill-rule:evenodd;"
d="M 135.4200,74.4800
135.3243,74.4610
135.2432,74.4068
135.1890,74.3257
135.1700,74.2300
135.1700,73.5550
135.1890,73.4593
135.2432,73.3782
135.3243,73.3240
135.4200,73.3050
136.3700,73.3050
136.4657,73.3240
136.5468,73.3782
136.6010,73.4593
136.6200,73.5550
136.6200,74.2300
136.6010,74.3257
136.5468,74.4068
136.4657,74.4610
136.3700,74.4800
Z" /> 
<path style="fill:#000000; fill-opacity:1.0000; stroke:none;fill-rule:evenodd;"
d="M 125.2600,76.5550
125.1643,76.5360
125.0832,76.4818
125.0290,76.4007
125.0100,76.3050
125.0100,75.6300
125.0290,75.5343
125.0832,75.4532
125.1643,75.3990
125.2600,75.3800
126.2100,75.3800
126.3057,75.3990
126.3868,75.4532
126.4410,75.5343
126.4600,75.6300
126.4600,76.3050
126.4410,76.4007
126.3868,76.4818
126.3057,76.5360
126.2100,76.5550
Z" /> 
<path style="fill:#000000; fill-opacity:1.0000; stroke:none;fill-rule:evenodd;"
d="M 125.2600,74.4800
125.1643,74.4610
125.0832,74.4068
125.0290,74.3257
125.0100,74.2300
125.0100,73.5550
125.0290,73.4593
125.0832,73.3782
125.1643,73.3240
125.2600,73.3050
126.2100,73.3050
126.3057,73.3240
126.3868,73.3782
126.4410,73.4593
126.4600,73.5550
126.4600,74.2300
126.4410,74.3257
126.3868,74.4068
126.3057,74.4610
126.2100,74.4800
Z" /> 
<path style="fill:#000000; fill-opacity:1.0000; stroke:none;fill-rule:evenodd;"
d="M 108.4200,63.1450
108.5157,63.1640
108.5968,63.2182
108.6510,63.2993
108.6700,63.3950
108.6700,64.0700
108.6510,64.1657
108.5968,64.2468
108.5157,64.3010
108.4200,64.3200
107.4700,64.3200
107.3743,64.3010
107.2932,64.2468
107.2390,64.1657
107.2200,64.0700
107.2200,63.3950
107.2390,63.2993
107.2932,63.2182
107.3743,63.1640
107.4700,63.1450
Z" /> 
<path style="fill:#000000; fill-opacity:1.0000; stroke:none;fill-rule:evenodd;"
d="M 108.4200,65.2200
108.5157,65.2390
108.5968,65.2932
108.6510,65.3743
108.6700,65.4700
108.6700,66.1450
108.6510,66.2407
108.5968,66.3218
108.5157,66.3760
108.4200,66.3950
107.4700,66.3950
107.3743,66.3760
107.2932,66.3218
107.2390,66.2407
107.2200,66.1450
107.2200,65.4700
107.2390,65.3743
107.2932,65.2932
107.3743,65.2390
107.4700,65.2200
Z" /> 
<path style="fill:#000000; fill-opacity:1.0000; stroke:none;fill-rule:evenodd;"
d="M 103.3400,52.7900
103.3590,52.6943
103.4132,52.6132
103.4943,52.5590
103.5900,52.5400
104.6900,52.5400
104.7857,52.5590
104.8668,52.6132
104.9210,52.6943
104.9400,52.7900
104.9400,53.8900
104.9210,53.9857
104.8668,54.0668
104.7857,54.1210
104.6900,54.1400
103.5900,54.1400
103.4943,54.1210
103.4132,54.0668
103.3590,53.9857
103.3400,53.8900
Z" /> 
</g>
<g style="fill:#000000; fill-opacity:1.0000; stroke:none;">
<circle cx="104.1400" cy="55.8800" r="0.8000" /> 
</g>
<g style="fill:#000000; fill-opacity:1.0000; stroke:none;">
<circle cx="104.1400" cy="58.4200" r="0.8000" /> 
</g>
<g style="fill:#000000; fill-opacity:1.0000; stroke:none;">
<circle cx="104.1400" cy="60.9600" r="0.8000" /> 
</g>
<g style="fill:#000000; fill-opacity:1.0000; stroke:none;">
<circle cx="104.1400" cy="63.5000" r="0.8000" /> 
</g>
<g style="fill:#000000; fill-opacity:1.0000; stroke:none;">
<circle cx="104.1400" cy="66.0400" r="0.8000" /> 
</g>
<g style="fill:#000000; fill-opacity:1.0000; stroke:none;">
<circle cx="104.1400" cy="68.5800" r="0.8000" /> 
</g>
<g style="fill:#000000; fill-opacity:1.0000; stroke:none;">
<circle cx="104.1400" cy="71.1200" r="0.8000" /> 
</g>
<g style="fill:#000000; fill-opacity:1.0000; stroke:none;">
<circle cx="104.1400" cy="73.6600" r="0.8000" /> 
</g>
<g style="fill:#000000; fill-opacity:1.0000; stroke:none;">
<circle cx="104.1400" cy="76.2000" r="0.8000" /> 
</g>
<g style="fill:#000000; fill-opacity:1.0000; stroke:none;">
<circle cx="111.7600" cy="76.2000" r="0.8000" /> 
</g>
<g style="fill:#000000; fill-opacity:1.0000; stroke:none;">
<circle cx="111.7600" cy="73.6600" r="0.8000" /> 
</g>
<g style="fill:#000000; fill-opacity:1.0000; stroke:none;">
<circle cx="111.7600" cy="71.1200" r="0.8000" /> 
</g>
<g style="fill:#000000; fill-opacity:1.0000; stroke:none;">
<circle cx="111.7600" cy="68.5800" r="0.8000" /> 
</g>
<g style="fill:#000000; fill-opacity:1.0000; stroke:none;">
<circle cx="111.7600" cy="66.0400" r="0.8000" /> 
</g>
<g style="fill:#000000; fill-opacity:1.0000; stroke:none;">
<circle cx="111.7600" cy="63.5000" r="0.8000" /> 
</g>
<g style="fill:#000000; fill-opacity:1.0000; stroke:none;">
<circle cx="111.7600" cy="60.9600" r="0.8000" /> 
</g>
<g style="fill:#000000; fill-opacity:1.0000; stroke:none;">
<circle cx="111.7600" cy="58.4200" r="0.8000" /> 
</g>
<g style="fill:#000000; fill-opacity:1.0000; stroke:none;">
<circle cx="111.7600" cy="55.8800" r="0.8000" /> 
</g>
<g style="fill:#000000; fill-opacity:1.0000; stroke:none;">
<circle cx="111.7600" cy="53.3400" r="0.8000" /> 
<path style="fill:#000000; fill-opacity:1.0000; stroke:none;fill-rule:evenodd;"
d="M 130.3400,91.9900
130.3210,92.0857
130.2668,92.1668
130.1857,92.2210
130.0900,92.2400
128.9900,92.2400
128.8943,92.2210
128.8132,92.1668
128.7590,92.0857
128.7400,91.9900
128.7400,90.8900
128.7590,90.7943
128.8132,90.7132
128.8943,90.6590
128.9900,90.6400
130.0900,90.6400
130.1857,90.6590
130.2668,90.7132
130.3210,90.7943
130.3400,90.8900
Z" /> 
</g>
<g style="fill:#000000; fill-opacity:1.0000; stroke:none;">
<circle cx="129.5400" cy="88.9000" r="0.8000" /> 
</g>
<g style="fill:#000000; fill-opacity:1.0000; stroke:none;">
<circle cx="129.5400" cy="86.3600" r="0.8000" /> 
</g>
<g style="fill:#000000; fill-opacity:1.0000; stroke:none;">
<circle cx="129.5400" cy="83.8200" r="0.8000" /> 
</g>
<g style="fill:#000000; fill-opacity:1.0000; stroke:none;">
<circle cx="129.5400" cy="81.2800" r="0.8000" /> 
</g>
<g style="fill:#000000; fill-opacity:1.0000; stroke:none;">
<circle cx="129.5400" cy="78.7400" r="0.8000" /> 
</g>
<g style="fill:#000000; fill-opacity:1.0000; stroke:none;">
<circle cx="129.5400" cy="76.2000" r="0.8000" /> 
</g>
<g style="fill:#000000; fill-opacity:1.0000; stroke:none;">
<circle cx="129.5400" cy="73.6600" r="0.8000" /> 
</g>
<g style="fill:#000000; fill-opacity:1.0000; stroke:none;">
<circle cx="129.5400" cy="71.1200" r="0.8000" /> 
</g>
<g style="fill:#000000; fill-opacity:1.0000; stroke:none;">
<circle cx="129.5400" cy="68.5800" r="0.8000" /> 
</g>
<g style="fill:#000000; fill-opacity:1.0000; stroke:none;">
<circle cx="129.5400" cy="66.0400" r="0.8000" /> 
</g>
<g style="fill:#000000; fill-opacity:1.0000; stroke:none;">
<circle cx="129.5400" cy="63.5000" r="0.8000" /> 
</g>
<g style="fill:#000000; fill-opacity:1.0000; stroke:none;">
<circle cx="129.5400" cy="60.9600" r="0.8000" /> 
</g>
<g style="fill:#000000; fill-opacity:1.0000; stroke:none;">
<circle cx="129.5400" cy="58.4200" r="0.8000" /> 
</g>
<g style="fill:#000000; fill-opacity:1.0000; stroke:none;">
<circle cx="121.9200" cy="58.4200" r="0.8000" /> 
</g>
<g style="fill:#000000; fill-opacity:1.0000; stroke:none;">
<circle cx="121.9200" cy="60.9600" r="0.8000" /> 
</g>
<g style="fill:#000000; fill-opacity:1.0000; stroke:none;">
<circle cx="121.9200" cy="63.5000" r="0.8000" /> 
</g>
<g style="fill:#000000; fill-opacity:1.0000; stroke:none;">
<circle cx="121.9200" cy="66.0400" r="0.8000" /> 
</g>
<g style="fill:#000000; fill-opacity:1.0000; stroke:none;">
<circle cx="121.9200" cy="68.5800" r="0.8000" /> 
</g>
<g style="fill:#000000; fill-opacity:1.0000; stroke:none;">
<circle cx="121.9200" cy="71.1200" r="0.8000" /> 
</g>
<g style="fill:#000000; fill-opacity:1.0000; stroke:none;">
<circle cx="121.9200" cy="73.6600" r="0.8000" /> 
</g>
<g style="fill:#000000; fill-opacity:1.0000; stroke:none;">
<circle cx="121.9200" cy="76.2000" r="0.8000" /> 
</g>
<g style="fill:#000000; fill-opacity:1.0000; stroke:none;">
<circle cx="121.9200" cy="78.7400" r="0.8000" /> 
</g>
<g style="fill:#000000; fill-opacity:1.0000; stroke:none;">
<circle cx="121.9200" cy="81.2800" r="0.8000" /> 
</g>
<g style="fill:#000000; fill-opacity:1.0000; stroke:none;">
<circle cx="121.9200" cy="83.8200" r="0.8000" /> 
</g>
<g style="fill:#000000; fill-opacity:1.0000; stroke:none;">
<circle cx="121.9200" cy="86.3600" r="0.8000" /> 
</g>
<g style="fill:#000000; fill-opacity:1.0000; stroke:none;">
<circle cx="121.9200" cy="88.9000" r="0.8000" /> 
</g>
<g style="fill:#000000; fill-opacity:1.0000; stroke:none;">
<circle cx="121.9200" cy="91.4400" r="0.8000" /> 
</g>
<g style="fill:#000000; fill-opacity:1.0000; stroke:none;">
<circle cx="142.7900" cy="47.8700" r="0.6000" /> 
</g>
<g style="fill:#000000; fill-opacity:1.0000; stroke:none;">
<circle cx="97.7900" cy="47.8700" r="0.6000" /> 
</g>
<g style="fill:#000000; fill-opacity:1.0000; stroke:none;">
<circle cx="97.7900" cy="102.8700" r="0.6000" /> 
</g>
<g style="fill:#000000; fill-opacity:1.0000; stroke:none;">
<circle cx="142.7900" cy="102.8700" r="0.6000" /> 
</g>
<g style="fill:#000000; fill-opacity:1.0000; stroke:none;">
<circle cx="113.0300" cy="88.9000" r="0.6000" /> 
</g>
<g style="fill:#000000; fill-opacity:1.0000; stroke:none;">
<circle cx="119.3800" cy="73.6600" r="0.6000" /> 
</g>
<g style="fill:#000000; fill-opacity:1.0000; stroke:none;">
<circle cx="119.3800" cy="71.1200" r="0.6000" /> 
</g>
<g style="fill:none; 
stroke:#000000; stroke-width:0.2500; stroke-opacity:1; 
stroke-linecap:round; stroke-linejoin:round;">
<path d="M111.8270 50.0450
L112.8500 49.0220
" />
<path d="M104.1400 76.2000
L107.9450 72.3950
" />
<path d="M112.8500 49.0220
L117.6020 49.0220
" />
<path d="M104.1400 76.2000
L105.4100 77.4700
" />
<path d="M107.9450 72.3950
L107.9450 65.8075
" />
<path d="M105.4100 84.4743
L102.2543 87.6300
" />
<path d="M122.9360 56.6420
L127.7620 56.6420
" />
<path d="M106.4260 56.2010
L106.4260 64.2885
" />
<path d="M102.2543 87.6300
L100.9650 87.6300
" />
<path d="M101.5746 99.0600
L101.6000 99.0600
" />
<path d="M100.9650 87.6300
L99.5680 89.0270
" />
<path d="M105.4100 77.4700
L105.4100 84.4743
" />
<path d="M135.8950 62.2250
L139.7000 58.4200
" />
<path d="M139.7000 58.4200
L137.9220 56.6420
" />
<path d="M106.4260 64.2885
L107.9450 65.8075
" />
<path d="M125.7350 62.2250
L125.7350 73.8925
" />
<path d="M99.5680 89.0270
L99.5680 97.0534
" />
<path d="M117.6020 49.0220
L119.3800 50.8000
" />
<path d="M119.3800 50.8000
L119.3800 53.0860
" />
<path d="M129.5400 58.4200
L127.7620 56.6420
" />
<path d="M135.8950 73.8925
L135.8950 62.2250
" />
<path d="M137.9220 56.6420
L131.3180 56.6420
" />
<path d="M131.3180 56.6420
L129.5400 58.4200
" />
<path d="M111.8270 50.8000
L111.8270 50.0450
" />
<path d="M99.5680 97.0534
L101.5746 99.0600
" />
<path d="M119.3800 53.0860
L122.9360 56.6420
" />
<path d="M129.5400 58.4200
L125.7350 62.2250
" />
<path d="M111.8270 50.8000
L106.4260 56.2010
" />
<path d="M125.7350 87.6250
L125.7350 75.9675
" />
<path d="M111.7600 53.3400
L113.0300 54.6100
" />
<path d="M107.9450 57.1550
L107.9450 63.7325
" />
<path d="M116.4590 50.4190
L116.8400 50.8000
" />
<path d="M118.6180 53.0860
L118.6180 52.5780
" />
<path d="M125.7350 75.9675
L124.2060 74.4385
" />
<path d="M124.2060 74.4385
L124.2060 58.6740
" />
<path d="M117.4750 54.6100
L118.6180 53.4670
" />
<path d="M121.9200 91.4400
L125.7350 87.6250
" />
<path d="M118.6180 52.5780
L116.8400 50.8000
" />
<path d="M111.7600 53.3400
L107.9450 57.1550
" />
<path d="M124.2060 58.6740
L118.6180 53.0860
" />
<path d="M116.8400 50.8000
L114.4270 50.8000
" />
<path d="M113.0300 54.6100
L117.4750 54.6100
" />
<path d="M132.0800 91.4400
L135.8950 87.6250
" />
<path d="M118.6180 53.4670
L118.6180 53.0860
" />
<path d="M135.8950 87.6250
L135.8950 75.9675
" />
<path d="M100.8380 74.9300
L102.8700 74.9300
" />
<path d="M100.9650 100.3300
L99.0600 98.4250
" />
<path d="M107.9500 100.3300
L100.9650 100.3300
" />
<path d="M116.8400 91.4400
L107.9500 100.3300
" />
<path d="M99.0600 98.4250
L99.0600 76.7080
" />
<path d="M99.0600 76.7080
L100.8380 74.9300
" />
<path d="M102.8700 74.9300
L104.1400 73.6600
" />
<path d="M115.5700 80.0100
L101.6000 93.9800
" />
<path d="M117.4750 80.0100
L115.5700 80.0100
" />
<path d="M120.4810 75.0990
L120.4810 77.0040
" />
<path d="M120.4810 77.0040
L117.4750 80.0100
" />
<path d="M121.9200 73.6600
L120.4810 75.0990
" />
<path d="M114.9350 85.0900
L102.2350 97.7900
" />
<path d="M100.0760 92.9640
L101.6000 91.4400
" />
<path d="M118.1100 85.0900
L114.9350 85.0900
" />
<path d="M101.0920 97.7900
L100.0760 96.7740
" />
<path d="M102.2350 97.7900
L101.0920 97.7900
" />
<path d="M100.0760 96.7740
L100.0760 92.9640
" />
<path d="M121.9200 81.2800
L118.1100 85.0900
" />
<path d="M119.7610 88.5190
L121.9200 86.3600
" />
<path d="M119.7610 88.5190
L119.7610 93.5990
" />
<path d="M119.7610 93.5990
L116.8400 96.5200
" />
<path d="M115.5700 87.6300
L114.3000 87.6300
" />
<path d="M114.3000 87.6300
L113.0300 88.9000
" />
<path d="M118.1100 87.6300
L115.5700 87.6300
" />
<path d="M121.9200 83.8200
L118.1100 87.6300
" />
<path d="M121.9200 78.7400
L118.1100 82.5500
" />
<path d="M115.5700 82.5500
L101.6000 96.5200
" />
<path d="M118.1100 82.5500
L115.5700 82.5500
" />
<path d="M114.3000 53.3400
L113.1270 52.1670
" />
<path d="M113.1270 52.1670
L113.1270 50.8000
" />
<path d="M122.5804 72.3900
L123.1900 72.9996
" />
<path d="M115.5700 72.3900
L114.3000 73.6600
" />
<path d="M123.1900 72.9996
L123.1900 74.9300
" />
<path d="M122.5804 72.3900
L115.5700 72.3900
" />
<path d="M123.1900 74.9300
L121.9200 76.2000
" />
</g> 
</svg>
