%TF.GenerationSoftware,KiCad,Pcbnew,9.0.5*%
%TF.CreationDate,2025-10-18T15:16:22+02:00*%
%TF.ProjectId,a8sram,61387372-616d-42e6-9b69-6361645f7063,rev?*%
%TF.SameCoordinates,Original*%
%TF.FileFunction,Legend,Top*%
%TF.FilePolarity,Positive*%
%FSLAX46Y46*%
G04 Gerber Fmt 4.6, Leading zero omitted, Abs format (unit mm)*
G04 Created by KiCad (PCBNEW 9.0.5) date 2025-10-18 15:16:22*
%MOMM*%
%LPD*%
G01*
G04 APERTURE LIST*
%ADD10C,0.150000*%
%ADD11C,0.120000*%
G04 APERTURE END LIST*
D10*
X112293666Y-52054819D02*
X112293666Y-52769104D01*
X112293666Y-52769104D02*
X112246047Y-52911961D01*
X112246047Y-52911961D02*
X112150809Y-53007200D01*
X112150809Y-53007200D02*
X112007952Y-53054819D01*
X112007952Y-53054819D02*
X111912714Y-53054819D01*
X112769857Y-53054819D02*
X112769857Y-52054819D01*
X112769857Y-52054819D02*
X113150809Y-52054819D01*
X113150809Y-52054819D02*
X113246047Y-52102438D01*
X113246047Y-52102438D02*
X113293666Y-52150057D01*
X113293666Y-52150057D02*
X113341285Y-52245295D01*
X113341285Y-52245295D02*
X113341285Y-52388152D01*
X113341285Y-52388152D02*
X113293666Y-52483390D01*
X113293666Y-52483390D02*
X113246047Y-52531009D01*
X113246047Y-52531009D02*
X113150809Y-52578628D01*
X113150809Y-52578628D02*
X112769857Y-52578628D01*
X114293666Y-53054819D02*
X113722238Y-53054819D01*
X114007952Y-53054819D02*
X114007952Y-52054819D01*
X114007952Y-52054819D02*
X113912714Y-52197676D01*
X113912714Y-52197676D02*
X113817476Y-52292914D01*
X113817476Y-52292914D02*
X113722238Y-52340533D01*
X135128095Y-93224819D02*
X135128095Y-94034342D01*
X135128095Y-94034342D02*
X135175714Y-94129580D01*
X135175714Y-94129580D02*
X135223333Y-94177200D01*
X135223333Y-94177200D02*
X135318571Y-94224819D01*
X135318571Y-94224819D02*
X135509047Y-94224819D01*
X135509047Y-94224819D02*
X135604285Y-94177200D01*
X135604285Y-94177200D02*
X135651904Y-94129580D01*
X135651904Y-94129580D02*
X135699523Y-94034342D01*
X135699523Y-94034342D02*
X135699523Y-93224819D01*
X136604285Y-93224819D02*
X136413809Y-93224819D01*
X136413809Y-93224819D02*
X136318571Y-93272438D01*
X136318571Y-93272438D02*
X136270952Y-93320057D01*
X136270952Y-93320057D02*
X136175714Y-93462914D01*
X136175714Y-93462914D02*
X136128095Y-93653390D01*
X136128095Y-93653390D02*
X136128095Y-94034342D01*
X136128095Y-94034342D02*
X136175714Y-94129580D01*
X136175714Y-94129580D02*
X136223333Y-94177200D01*
X136223333Y-94177200D02*
X136318571Y-94224819D01*
X136318571Y-94224819D02*
X136509047Y-94224819D01*
X136509047Y-94224819D02*
X136604285Y-94177200D01*
X136604285Y-94177200D02*
X136651904Y-94129580D01*
X136651904Y-94129580D02*
X136699523Y-94034342D01*
X136699523Y-94034342D02*
X136699523Y-93796247D01*
X136699523Y-93796247D02*
X136651904Y-93701009D01*
X136651904Y-93701009D02*
X136604285Y-93653390D01*
X136604285Y-93653390D02*
X136509047Y-93605771D01*
X136509047Y-93605771D02*
X136318571Y-93605771D01*
X136318571Y-93605771D02*
X136223333Y-93653390D01*
X136223333Y-93653390D02*
X136175714Y-93701009D01*
X136175714Y-93701009D02*
X136128095Y-93796247D01*
X117064819Y-65460476D02*
X116588628Y-65793809D01*
X117064819Y-66031904D02*
X116064819Y-66031904D01*
X116064819Y-66031904D02*
X116064819Y-65650952D01*
X116064819Y-65650952D02*
X116112438Y-65555714D01*
X116112438Y-65555714D02*
X116160057Y-65508095D01*
X116160057Y-65508095D02*
X116255295Y-65460476D01*
X116255295Y-65460476D02*
X116398152Y-65460476D01*
X116398152Y-65460476D02*
X116493390Y-65508095D01*
X116493390Y-65508095D02*
X116541009Y-65555714D01*
X116541009Y-65555714D02*
X116588628Y-65650952D01*
X116588628Y-65650952D02*
X116588628Y-66031904D01*
X117064819Y-65031904D02*
X116064819Y-65031904D01*
X116064819Y-65031904D02*
X117064819Y-64460476D01*
X117064819Y-64460476D02*
X116064819Y-64460476D01*
X117064819Y-63460476D02*
X117064819Y-64031904D01*
X117064819Y-63746190D02*
X116064819Y-63746190D01*
X116064819Y-63746190D02*
X116207676Y-63841428D01*
X116207676Y-63841428D02*
X116302914Y-63936666D01*
X116302914Y-63936666D02*
X116350533Y-64031904D01*
X139256419Y-56035533D02*
X139970704Y-56035533D01*
X139970704Y-56035533D02*
X140113561Y-56083152D01*
X140113561Y-56083152D02*
X140208800Y-56178390D01*
X140208800Y-56178390D02*
X140256419Y-56321247D01*
X140256419Y-56321247D02*
X140256419Y-56416485D01*
X140256419Y-55035533D02*
X140256419Y-55606961D01*
X140256419Y-55321247D02*
X139256419Y-55321247D01*
X139256419Y-55321247D02*
X139399276Y-55416485D01*
X139399276Y-55416485D02*
X139494514Y-55511723D01*
X139494514Y-55511723D02*
X139542133Y-55606961D01*
X108458095Y-47924819D02*
X108458095Y-48734342D01*
X108458095Y-48734342D02*
X108505714Y-48829580D01*
X108505714Y-48829580D02*
X108553333Y-48877200D01*
X108553333Y-48877200D02*
X108648571Y-48924819D01*
X108648571Y-48924819D02*
X108839047Y-48924819D01*
X108839047Y-48924819D02*
X108934285Y-48877200D01*
X108934285Y-48877200D02*
X108981904Y-48829580D01*
X108981904Y-48829580D02*
X109029523Y-48734342D01*
X109029523Y-48734342D02*
X109029523Y-47924819D01*
X109934285Y-48258152D02*
X109934285Y-48924819D01*
X109696190Y-47877200D02*
X109458095Y-48591485D01*
X109458095Y-48591485D02*
X110077142Y-48591485D01*
X134574580Y-75096666D02*
X134622200Y-75144285D01*
X134622200Y-75144285D02*
X134669819Y-75287142D01*
X134669819Y-75287142D02*
X134669819Y-75382380D01*
X134669819Y-75382380D02*
X134622200Y-75525237D01*
X134622200Y-75525237D02*
X134526961Y-75620475D01*
X134526961Y-75620475D02*
X134431723Y-75668094D01*
X134431723Y-75668094D02*
X134241247Y-75715713D01*
X134241247Y-75715713D02*
X134098390Y-75715713D01*
X134098390Y-75715713D02*
X133907914Y-75668094D01*
X133907914Y-75668094D02*
X133812676Y-75620475D01*
X133812676Y-75620475D02*
X133717438Y-75525237D01*
X133717438Y-75525237D02*
X133669819Y-75382380D01*
X133669819Y-75382380D02*
X133669819Y-75287142D01*
X133669819Y-75287142D02*
X133717438Y-75144285D01*
X133717438Y-75144285D02*
X133765057Y-75096666D01*
X133669819Y-74239523D02*
X133669819Y-74429999D01*
X133669819Y-74429999D02*
X133717438Y-74525237D01*
X133717438Y-74525237D02*
X133765057Y-74572856D01*
X133765057Y-74572856D02*
X133907914Y-74668094D01*
X133907914Y-74668094D02*
X134098390Y-74715713D01*
X134098390Y-74715713D02*
X134479342Y-74715713D01*
X134479342Y-74715713D02*
X134574580Y-74668094D01*
X134574580Y-74668094D02*
X134622200Y-74620475D01*
X134622200Y-74620475D02*
X134669819Y-74525237D01*
X134669819Y-74525237D02*
X134669819Y-74334761D01*
X134669819Y-74334761D02*
X134622200Y-74239523D01*
X134622200Y-74239523D02*
X134574580Y-74191904D01*
X134574580Y-74191904D02*
X134479342Y-74144285D01*
X134479342Y-74144285D02*
X134241247Y-74144285D01*
X134241247Y-74144285D02*
X134146009Y-74191904D01*
X134146009Y-74191904D02*
X134098390Y-74239523D01*
X134098390Y-74239523D02*
X134050771Y-74334761D01*
X134050771Y-74334761D02*
X134050771Y-74525237D01*
X134050771Y-74525237D02*
X134098390Y-74620475D01*
X134098390Y-74620475D02*
X134146009Y-74668094D01*
X134146009Y-74668094D02*
X134241247Y-74715713D01*
X124414580Y-75096666D02*
X124462200Y-75144285D01*
X124462200Y-75144285D02*
X124509819Y-75287142D01*
X124509819Y-75287142D02*
X124509819Y-75382380D01*
X124509819Y-75382380D02*
X124462200Y-75525237D01*
X124462200Y-75525237D02*
X124366961Y-75620475D01*
X124366961Y-75620475D02*
X124271723Y-75668094D01*
X124271723Y-75668094D02*
X124081247Y-75715713D01*
X124081247Y-75715713D02*
X123938390Y-75715713D01*
X123938390Y-75715713D02*
X123747914Y-75668094D01*
X123747914Y-75668094D02*
X123652676Y-75620475D01*
X123652676Y-75620475D02*
X123557438Y-75525237D01*
X123557438Y-75525237D02*
X123509819Y-75382380D01*
X123509819Y-75382380D02*
X123509819Y-75287142D01*
X123509819Y-75287142D02*
X123557438Y-75144285D01*
X123557438Y-75144285D02*
X123605057Y-75096666D01*
X123509819Y-74191904D02*
X123509819Y-74668094D01*
X123509819Y-74668094D02*
X123986009Y-74715713D01*
X123986009Y-74715713D02*
X123938390Y-74668094D01*
X123938390Y-74668094D02*
X123890771Y-74572856D01*
X123890771Y-74572856D02*
X123890771Y-74334761D01*
X123890771Y-74334761D02*
X123938390Y-74239523D01*
X123938390Y-74239523D02*
X123986009Y-74191904D01*
X123986009Y-74191904D02*
X124081247Y-74144285D01*
X124081247Y-74144285D02*
X124319342Y-74144285D01*
X124319342Y-74144285D02*
X124414580Y-74191904D01*
X124414580Y-74191904D02*
X124462200Y-74239523D01*
X124462200Y-74239523D02*
X124509819Y-74334761D01*
X124509819Y-74334761D02*
X124509819Y-74572856D01*
X124509819Y-74572856D02*
X124462200Y-74668094D01*
X124462200Y-74668094D02*
X124414580Y-74715713D01*
X109984580Y-64936666D02*
X110032200Y-64984285D01*
X110032200Y-64984285D02*
X110079819Y-65127142D01*
X110079819Y-65127142D02*
X110079819Y-65222380D01*
X110079819Y-65222380D02*
X110032200Y-65365237D01*
X110032200Y-65365237D02*
X109936961Y-65460475D01*
X109936961Y-65460475D02*
X109841723Y-65508094D01*
X109841723Y-65508094D02*
X109651247Y-65555713D01*
X109651247Y-65555713D02*
X109508390Y-65555713D01*
X109508390Y-65555713D02*
X109317914Y-65508094D01*
X109317914Y-65508094D02*
X109222676Y-65460475D01*
X109222676Y-65460475D02*
X109127438Y-65365237D01*
X109127438Y-65365237D02*
X109079819Y-65222380D01*
X109079819Y-65222380D02*
X109079819Y-65127142D01*
X109079819Y-65127142D02*
X109127438Y-64984285D01*
X109127438Y-64984285D02*
X109175057Y-64936666D01*
X110079819Y-63984285D02*
X110079819Y-64555713D01*
X110079819Y-64269999D02*
X109079819Y-64269999D01*
X109079819Y-64269999D02*
X109222676Y-64365237D01*
X109222676Y-64365237D02*
X109317914Y-64460475D01*
X109317914Y-64460475D02*
X109365533Y-64555713D01*
X107188095Y-50464819D02*
X107188095Y-51274342D01*
X107188095Y-51274342D02*
X107235714Y-51369580D01*
X107235714Y-51369580D02*
X107283333Y-51417200D01*
X107283333Y-51417200D02*
X107378571Y-51464819D01*
X107378571Y-51464819D02*
X107569047Y-51464819D01*
X107569047Y-51464819D02*
X107664285Y-51417200D01*
X107664285Y-51417200D02*
X107711904Y-51369580D01*
X107711904Y-51369580D02*
X107759523Y-51274342D01*
X107759523Y-51274342D02*
X107759523Y-50464819D01*
X108759523Y-51464819D02*
X108188095Y-51464819D01*
X108473809Y-51464819D02*
X108473809Y-50464819D01*
X108473809Y-50464819D02*
X108378571Y-50607676D01*
X108378571Y-50607676D02*
X108283333Y-50702914D01*
X108283333Y-50702914D02*
X108188095Y-50750533D01*
X124968095Y-93224819D02*
X124968095Y-94034342D01*
X124968095Y-94034342D02*
X125015714Y-94129580D01*
X125015714Y-94129580D02*
X125063333Y-94177200D01*
X125063333Y-94177200D02*
X125158571Y-94224819D01*
X125158571Y-94224819D02*
X125349047Y-94224819D01*
X125349047Y-94224819D02*
X125444285Y-94177200D01*
X125444285Y-94177200D02*
X125491904Y-94129580D01*
X125491904Y-94129580D02*
X125539523Y-94034342D01*
X125539523Y-94034342D02*
X125539523Y-93224819D01*
X126491904Y-93224819D02*
X126015714Y-93224819D01*
X126015714Y-93224819D02*
X125968095Y-93701009D01*
X125968095Y-93701009D02*
X126015714Y-93653390D01*
X126015714Y-93653390D02*
X126110952Y-93605771D01*
X126110952Y-93605771D02*
X126349047Y-93605771D01*
X126349047Y-93605771D02*
X126444285Y-93653390D01*
X126444285Y-93653390D02*
X126491904Y-93701009D01*
X126491904Y-93701009D02*
X126539523Y-93796247D01*
X126539523Y-93796247D02*
X126539523Y-94034342D01*
X126539523Y-94034342D02*
X126491904Y-94129580D01*
X126491904Y-94129580D02*
X126444285Y-94177200D01*
X126444285Y-94177200D02*
X126349047Y-94224819D01*
X126349047Y-94224819D02*
X126110952Y-94224819D01*
X126110952Y-94224819D02*
X126015714Y-94177200D01*
X126015714Y-94177200D02*
X125968095Y-94129580D01*
D11*
%TO.C,JP1*%
X111077000Y-51100000D02*
X111077000Y-50500000D01*
X111727000Y-49800000D02*
X114527000Y-49800000D01*
X114327000Y-49600000D02*
X114027000Y-49300000D01*
X114327000Y-49600000D02*
X114627000Y-49300000D01*
X114527000Y-51800000D02*
X111727000Y-51800000D01*
X114627000Y-49300000D02*
X114027000Y-49300000D01*
X115177000Y-50500000D02*
X115177000Y-51100000D01*
X111077000Y-50500000D02*
G75*
G02*
X111777000Y-49800000I700000J0D01*
G01*
X111777000Y-51800000D02*
G75*
G02*
X111077000Y-51100000I0J700000D01*
G01*
X114477000Y-49800000D02*
G75*
G02*
X115177000Y-50500000I1J-699999D01*
G01*
X115177000Y-51100000D02*
G75*
G02*
X114477000Y-51800000I-699999J-1D01*
G01*
%TO.C,U6*%
X133240000Y-57090000D02*
X133240000Y-92770000D01*
X133240000Y-92770000D02*
X134890000Y-92770000D01*
X136890000Y-92770000D02*
X138540000Y-92770000D01*
X138540000Y-57090000D02*
X133240000Y-57090000D01*
X138540000Y-92770000D02*
X138540000Y-57090000D01*
X134890000Y-92770000D02*
G75*
G02*
X136890000Y-92770000I1000000J0D01*
G01*
%TO.C,RN1*%
X112990000Y-51990000D02*
X112990000Y-75010000D01*
X112990000Y-75010000D02*
X115610000Y-75010000D01*
X115610000Y-51990000D02*
X112990000Y-51990000D01*
X115610000Y-54610000D02*
X112990000Y-54610000D01*
X115610000Y-75010000D02*
X115610000Y-51990000D01*
%TO.C,J1*%
X120540000Y-51960000D02*
X120540000Y-54720000D01*
X138430000Y-51960000D02*
X120540000Y-51960000D01*
X138430000Y-51960000D02*
X138430000Y-54720000D01*
X138430000Y-54720000D02*
X120540000Y-54720000D01*
X139700000Y-51960000D02*
X141080000Y-51960000D01*
X141080000Y-51960000D02*
X141080000Y-53340000D01*
%TO.C,U4*%
X102760000Y-49470000D02*
X102760000Y-100390000D01*
X102760000Y-100390000D02*
X115680000Y-100390000D01*
X108220000Y-49470000D02*
X102760000Y-49470000D01*
X115680000Y-49470000D02*
X110220000Y-49470000D01*
X115680000Y-100390000D02*
X115680000Y-49470000D01*
X110220000Y-49470000D02*
G75*
G02*
X108220000Y-49470000I-1000000J0D01*
G01*
%TO.C,C6*%
X135160000Y-75191252D02*
X135160000Y-74668748D01*
X136630000Y-75191252D02*
X136630000Y-74668748D01*
%TO.C,C5*%
X125000000Y-75191252D02*
X125000000Y-74668748D01*
X126470000Y-75191252D02*
X126470000Y-74668748D01*
%TO.C,C1*%
X107210000Y-64508748D02*
X107210000Y-65031252D01*
X108680000Y-64508748D02*
X108680000Y-65031252D01*
%TO.C,U1*%
X105300000Y-52010000D02*
X105300000Y-77530000D01*
X105300000Y-77530000D02*
X110600000Y-77530000D01*
X106950000Y-52010000D02*
X105300000Y-52010000D01*
X110600000Y-52010000D02*
X108950000Y-52010000D01*
X110600000Y-77530000D02*
X110600000Y-52010000D01*
X108950000Y-52010000D02*
G75*
G02*
X106950000Y-52010000I-1000000J0D01*
G01*
%TO.C,U5*%
X123080000Y-57090000D02*
X123080000Y-92770000D01*
X123080000Y-92770000D02*
X124730000Y-92770000D01*
X126730000Y-92770000D02*
X128380000Y-92770000D01*
X128380000Y-57090000D02*
X123080000Y-57090000D01*
X128380000Y-92770000D02*
X128380000Y-57090000D01*
X124730000Y-92770000D02*
G75*
G02*
X126730000Y-92770000I1000000J0D01*
G01*
%TD*%
M02*
